<svg xmlns="http://www.w3.org/2000/svg" viewBox="0 0 140.71 137.83">
	<defs>
		<style>.cls-1{fill:#000;stroke:#000;stroke-miterlimit:10;stroke-width:2px;}</style>
	</defs>
	<title>Ресурс 3</title>
	<g id="Слой_2" data-name="Слой 2">
		<g id="Layer_1" data-name="Layer 1">
			<path class="cls-1"
				  d="M117.75,15.45H103.88A7.52,7.52,0,0,0,96.36,23V36.84a7.52,7.52,0,0,0,7.52,7.51h13.87a7.51,7.51,0,0,0,7.51-7.51V23a7.51,7.51,0,0,0-7.51-7.51Zm1.74,21.39a1.73,1.73,0,0,1-1.74,1.72H103.88a1.72,1.72,0,0,1-1.73-1.72V23a1.72,1.72,0,0,1,1.73-1.72h13.87A1.73,1.73,0,0,1,119.49,23Z"/>
			<path class="cls-1"
				  d="M110.23,1H30.48A29.55,29.55,0,0,0,1,30.56v76.7a29.55,29.55,0,0,0,29.48,29.57h79.75a29.55,29.55,0,0,0,29.48-29.57V30.56A29.55,29.55,0,0,0,110.23,1Zm23.71,106.26a23.78,23.78,0,0,1-23.71,23.79H30.48A23.76,23.76,0,0,1,6.79,107.26V55.91h35.3a40.46,40.46,0,1,0,56.53,0h35.32ZM105,84.8A34.68,34.68,0,1,1,70.36,50.14,34.72,34.72,0,0,1,105,84.8Zm-14-34.66a40,40,0,0,0-41.46,0H6.79V30.56A23.75,23.75,0,0,1,30.48,6.79h79.75a23.77,23.77,0,0,1,23.71,23.77V50.14Z"/>
		</g>
	</g>
</svg>
