<svg xmlns="http://www.w3.org/2000/svg" viewBox="0 0 183.96 108.06">
	<defs>
		<style>.cls-1{fill:#000;stroke:#000;stroke-miterlimit:10;stroke-width:4px;}</style>
	</defs>
	<title>Ресурс 1</title>
	<g id="Слой_2" data-name="Слой 2">
		<g id="Layer_1" data-name="Layer 1">
			<path class="cls-1"
				  d="M2.88,8.49c-1.25,2-1.17,4.52.23,7.63,11.06,24.6,21.1,42.49,32.55,58C43.66,85,51.7,92.48,61,97.78c9.74,5.57,20.66,8.28,33.4,8.28,1.45,0,2.94,0,4.43-.11,7.46-.34,10.22-3,10.55-10.28.21-4.25.69-7.71,2.37-10.78a3.86,3.86,0,0,1,2-2,4,4,0,0,1,2.84.83,22.06,22.06,0,0,1,4.08,3.65c1.06,1.16,2.13,2.36,3.17,3.52l.08.09c2.25,2.51,4.57,5.11,7,7.59,5.3,5.4,11.39,7.87,18.1,7.36h25.58a7.46,7.46,0,0,0,6.07-3.9,10.18,10.18,0,0,0-.09-9.7,52.24,52.24,0,0,0-6.45-9.31,155.82,155.82,0,0,0-12.67-13l-.07-.07c-1.51-1.42-3.06-2.89-4.55-4.35-2.29-2.24-3.33-3.76-3.46-5.1s.59-3,2.4-5.52c2.41-3.38,5-6.76,7.45-10,2.22-2.93,4.5-5.93,6.68-9l.49-.68c4.22-5.84,8.58-11.87,10.89-19.15.62-1.93,1.26-4.78-.2-7.18s-4.31-3.13-6.31-3.48a16.94,16.94,0,0,0-2.88-.18l-27.67,0c-4.39-.07-7.27,1.92-8.92,6.07-1.46,3.66-3.18,7.91-5.18,11.93-3.82,7.79-8.68,16.77-15.76,24.28L114,48a8.12,8.12,0,0,1-2,1.76l-.53.25-.49-.31c-1.3-.82-2.13-4.09-2.09-5.55L110,44H109l0-32a2.07,2.07,0,0,0,0-.35c-.59-4.35-1.66-8.36-8.2-9.65a2.72,2.72,0,0,0-.49,0H71.43c-4.7,0-7.31,1.92-9.76,4.79-.61.72-2,2.4-1.34,4.37C61,13,62.75,13.48,64,13.72c3.6.68,5.54,2.8,6.11,6.65a94.31,94.31,0,0,1,.4,22.41,19.07,19.07,0,0,1-1.28,5.8,5.11,5.11,0,0,1-.54,1l-.48.69L67.46,50a5.3,5.3,0,0,1-1-.55c-2.36-1.61-4.08-4-5.74-6.38A151.45,151.45,0,0,1,44.12,12.21c-1.76-4.3-5-6.71-9.24-6.77s-8.49-.11-12.54-.11c-4.26,0-8.4,0-12.48.12C6.47,5.51,4.12,6.53,2.88,8.49ZM34.8,10.56c1.35,0,3.29.41,4.58,3.58A156.32,156.32,0,0,0,56.56,46c1.75,2.45,3.91,5.51,7,7.65,2.66,1.81,4.75,1.74,6,1.37s3.09-1.46,4.35-4.43a24.1,24.1,0,0,0,1.66-7.35,99.09,99.09,0,0,0-.43-23.61c-.7-4.73-3.11-8.16-7-9.9l-2-.91,1.95-1a6.69,6.69,0,0,1,3.22-.67H100l.11,0c1.76.39,2.34.91,2.64,1.32a8.22,8.22,0,0,1,1.09,3.68l0,.15,0,31.68c-.06,2.77,1.27,9,5.74,10.62l.08,0c3.94,1.28,6.56-1.51,8.12-3.18l.29-.31c7.55-8,12.65-17.4,16.64-25.53,2.08-4.2,3.85-8.55,5.34-12.3.87-2.2,1.86-2.9,4.08-2.85l27.75,0a13.1,13.1,0,0,1,2,.11,7,7,0,0,1,2.43.76l.45.28,0,.53a6.65,6.65,0,0,1-.43,2.49c-2.06,6.5-6,11.94-10.15,17.7l-.5.68c-2.12,2.94-4.36,5.89-6.52,8.74l-.06.09c-2.5,3.29-5.09,6.7-7.56,10.17-4.94,6.89-4.53,11.25,1.64,17.26,1.53,1.49,3.09,3,4.61,4.41l.07.07a149,149,0,0,1,12.26,12.55A47.28,47.28,0,0,1,176,94.71a5.16,5.16,0,0,1,.19,4.84,2.42,2.42,0,0,1-1.81,1.29H148.73c-5.32.45-9.84-1.41-14.18-5.83-2.35-2.4-4.63-5-6.83-7.41-1.07-1.2-2.18-2.44-3.29-3.65a26.47,26.47,0,0,0-5.07-4.5c-3-1.92-5.38-1.87-6.87-1.49a8.37,8.37,0,0,0-5.26,4.47c-2.28,4.16-2.78,8.71-3,13-.14,3.08-.7,3.94-1.1,4.33s-1.34.93-4.57,1.08c-1.42.06-2.8.1-4.17.1-11.83,0-22-2.5-30.89-7.6-8.62-4.94-16.17-12-23.73-22.26C28.55,55.87,18.69,38.27,7.78,14a7.34,7.34,0,0,1-.64-2L7,11.13l.83-.28A7.51,7.51,0,0,1,10,10.57C17.88,10.42,26,10.42,34.8,10.56Z"/>
		</g>
	</g>
</svg>
