<svg xmlns="http://www.w3.org/2000/svg" viewBox="0 0 375.2 319.53"><defs><style>.cls-1{fill:red;}.cls-2{fill:none;stroke-linecap:round;stroke-width:12px;}.cls-2,.cls-3{stroke:#000;stroke-miterlimit:10;}.cls-3{stroke-width:6px;}</style></defs><title>Ресурс 1</title><g id="Слой_2" data-name="Слой 2"><g id="Layer_1" data-name="Layer 1"><rect class="cls-1" x="225.67" y="172.98" width="149.33" height="33.65" transform="translate(-48.57 256.86) rotate(-43.17)"/><path d="M185.41,253.26a6,6,0,0,0-6-6H76.21a6,6,0,1,0,0,12h103.2a6,6,0,0,0,6-6Z"/><path d="M65.41,276.06a6,6,0,0,0,0,12H168.6a6,6,0,0,0,0-12Z"/><path d="M174.6,161.53a6,6,0,0,0-6-6H65.41a6,6,0,0,0,0,12H168.6a6,6,0,0,0,6-6Z"/><path d="M76.21,196.32h103.2a6,6,0,1,0,0-12H76.21a6,6,0,1,0,0,12Z"/><path d="M204.91,179.43a5.42,5.42,0,0,0,.89-.07,6,6,0,0,0,4.69-3.74l9.93-25.33a6,6,0,1,0-11.17-4.38l-6.13,15.63L202,160.11a6,6,0,0,0-9.4,7.47l7.62,9.58a6,6,0,0,0,4.7,2.27Z"/><path d="M205.56,208.11a6,6,0,0,0,4.7,2.26,6.77,6.77,0,0,0,.89-.06,6,6,0,0,0,4.69-3.75l9.93-25.32a6,6,0,1,0-11.17-4.38l-6.13,15.63-1.13-1.43a6,6,0,0,0-9.4,7.47Z"/><path d="M373.58,144.19,343,111.58a6,6,0,0,0-8.48-.27L219.86,218.85a6.11,6.11,0,0,0-1.6,2.51l-14.45,44.22a6,6,0,0,0,5.7,7.86,6.41,6.41,0,0,0,1.5-.18l45.05-11.61a6,6,0,0,0,2.6-1.44L373.31,152.67a6,6,0,0,0,.27-8.48Zm-155,114.71,7.91-24.18,16.73,17.84Zm36.22-11.54L232.45,223.5l105.89-99.34L360.72,148Z"/><path d="M248.27,272.88a6,6,0,0,0-7.19,4.5l-6.94,30.15H39.35l18.36-79.74h148.4a6,6,0,0,0,0-12H57.71L39.35,136.06H234.14L243,174.45a6,6,0,1,0,11.69-2.69l-9.6-41.7L272.32,7.35A6,6,0,0,0,266.47,0H59.37a6,6,0,0,0-5.85,4.65L26,128.71a6.11,6.11,0,0,0,0,2.69l20.82,90.39L26,312.18a6,6,0,0,0,5.85,7.35h207.1a6,6,0,0,0,5.85-4.65l8-34.81a6,6,0,0,0-4.51-7.19ZM64.15,12H258.93L234.14,124.06H39.35Z"/><line class="cls-2" x1="283.81" y1="259.26" x2="306.48" y2="236.62"/><polyline class="cls-2" points="10.64 150.95 6.31 135.95 9.14 128.28"/><path class="cls-3" d="M172,35c1.32.49,1.64,1.49,1.63,2.81,0,5.47,0,11,0,16.42v1c-.31,0-.54,0-.77,0H155.64c-1.22,0-1.86-.42-2.12-1.37a1.71,1.71,0,0,1,1.25-2.2,6,6,0,0,1,1.33-.14h10.74l.12-.22c-.89-.93-1.74-1.92-2.69-2.8a29.36,29.36,0,0,0-46.13,7.94,28,28,0,0,0-3.23,12.26,9.75,9.75,0,0,1-.13,1.43,1.81,1.81,0,0,1-1.93,1.61A1.66,1.66,0,0,1,111.19,70a38.43,38.43,0,0,1,.46-5.79,33.07,33.07,0,0,1,57.71-15.75l.54.6V37.73c0-1.73.27-2.15,1.77-2.78Z"/><path class="cls-3" d="M118.52,91.06c0,3.85,0,7.68,0,11.51a2.1,2.1,0,0,1-1.25,2.17,1.87,1.87,0,0,1-2.48-1.88c0-.77,0-1.55,0-2.33V84.7c.33,0,.59,0,.85,0h17.14c1.26,0,1.9.43,2.16,1.43a1.74,1.74,0,0,1-1.17,2.11,5.68,5.68,0,0,1-1.42.16c-3.26,0-6.52,0-9.78,0h-1l-.15.22c1.09,1.11,2.13,2.29,3.3,3.32a29.36,29.36,0,0,0,46.35-10.13,27.26,27.26,0,0,0,2.4-9.94c0-.57.06-1.13.12-1.7.13-1.35.89-2.1,2-2s1.67.94,1.65,2.26a31.6,31.6,0,0,1-1.22,8.48A32.63,32.63,0,0,1,161.8,98a32.23,32.23,0,0,1-20.33,5,31.84,31.84,0,0,1-18.26-7.46C121.59,94.1,120.13,92.57,118.52,91.06Z"/></g></g></svg>