<svg xmlns="http://www.w3.org/2000/svg" viewBox="0 0 427.52 287.93"><defs><style>.cls-1{fill:red;}.cls-2{fill:none;stroke:#000;stroke-linecap:round;stroke-miterlimit:10;stroke-width:12px;}</style></defs><title>bРесурс 1</title><g id="Слой_2" data-name="Слой 2"><g id="Layer_1" data-name="Layer 1"><path class="cls-1" d="M62.65,169.86a9.13,9.13,0,0,1-3.45-.9A11,11,0,0,1,53,159V80.06A10.71,10.71,0,0,1,63.42,69.12h42.49V169.91h-2.1c-40.81,0-41,0-41.06,0Z"/><polygon points="271.34 212.72 270.23 212.72 270.23 212.73 271.35 212.72 271.34 212.72"/><path d="M117,178.05a383.17,383.17,0,0,1,148.23,47,14.25,14.25,0,0,0,14.08-.13,14,14,0,0,0,7-12.16V157.44l2-.26a44.13,44.13,0,0,0,0-87.53l-2-.25V14.12a14.11,14.11,0,0,0-21-12.29,383.36,383.36,0,0,1-159.93,48c-.42,0-28.24.16-51.5.26a22.73,22.73,0,0,0-22.58,20l-.23,2H18.48A18.5,18.5,0,0,0,0,90.64v45.58a18.5,18.5,0,0,0,18.48,18.49H31l.23,2a22.82,22.82,0,0,0,13.41,18.11l.88.39L83,278.74a14,14,0,0,0,13.13,9.19h37.31a14,14,0,0,0,13.13-18.73l-33.18-91.53ZM286.23,80.84l2.71.55a32.67,32.67,0,0,1,0,64.06l-2.71.55ZM31,143.23H18.48a7,7,0,0,1-7-7V90.64a7,7,0,0,1,7-7H31Zm80-82.34,2.06-.19A394.71,394.71,0,0,0,270.79,11.84a2.63,2.63,0,0,1,2.68,0,2.54,2.54,0,0,1,1.29,2.26v198.6a2.54,2.54,0,0,1-1.29,2.26,2.81,2.81,0,0,1-1.37.38,2.63,2.63,0,0,1-1.32-.37A394.5,394.5,0,0,0,113.1,166.14L111,166ZM52.92,165.24a10.45,10.45,0,0,1-3.72-.93A11.29,11.29,0,0,1,42.49,154V72.84A11.27,11.27,0,0,1,53.75,61.58H99.57V165.29H97.3c-44,0-44.17,0-44.27,0Zm82.84,107.87a2.39,2.39,0,0,1-.3,2.28,2.43,2.43,0,0,1-2,1.06H96.1a2.48,2.48,0,0,1-2.33-1.62L58.23,176.76h42.6Z"/><path class="cls-2" d="M105.91,23.22S130.3,25,163.33,11.15"/><line class="cls-2" x1="340.03" y1="63.06" x2="372.02" y2="50.99"/><line class="cls-2" x1="353.31" y1="108.34" x2="421.52" y2="108.34"/><line class="cls-2" x1="346.06" y1="149.99" x2="358.74" y2="153.61"/></g></g></svg>