<svg xmlns="http://www.w3.org/2000/svg" viewBox="0 0 350.4 327.03"><defs><style>.cls-1{fill:red;}.cls-2{fill:none;stroke:#000;stroke-linecap:round;stroke-miterlimit:10;stroke-width:12px;}</style></defs><title>Ресурс 1</title><g id="Слой_2" data-name="Слой 2"><g id="Layer_1" data-name="Layer 1"><polygon class="cls-1" points="14.54 74.58 160.83 15.56 290.86 69.02 148.85 131.9 14.54 74.58"/><path d="M246.69,292.17a5.83,5.83,0,0,0-7.08,4.24l-5.84,23.36a5.84,5.84,0,0,0,11.33,2.84l5.84-23.36a5.84,5.84,0,0,0-4.25-7.08Z"/><path d="M175.2,175.19a5.76,5.76,0,0,0,2.23-.44l64.24-26.58a5.84,5.84,0,1,0-4.48-10.79L175.2,163,11.68,95.38V93.44A5.84,5.84,0,0,0,0,93.44v5.84a5.82,5.82,0,0,0,3.61,5.39L173,174.75a5.72,5.72,0,0,0,2.23.44Z"/><path d="M244.67,235a5.83,5.83,0,0,0-7.82-2.65c-11.09,5.48-29.62,11.86-55.81,12.72V192.71a5.84,5.84,0,0,0-11.68,0v52.34c-72.52-2.31-95.91-46.24-99.28-53.55V151.84a5.84,5.84,0,1,0-11.68,0v40.87a5.83,5.83,0,0,0,.42,2.18c1,2.53,25.87,62.06,116.38,62.06,31.63,0,53.8-7.67,66.82-14.1a5.82,5.82,0,0,0,2.65-7.82Z"/><path d="M262.79,297.84a5.83,5.83,0,0,0-5.83,5.83v17.52a5.84,5.84,0,1,0,11.68,0V303.67a5.83,5.83,0,0,0-5.85-5.83Z"/><path d="M344.55,87.6a5.84,5.84,0,0,0-5.84,5.84v1.92l-70.07,28.85V113.66l78.15-32.35a5.84,5.84,0,0,0,0-10.79L177.43.44a5.84,5.84,0,0,0-4.46,0L3.61,70.52a5.84,5.84,0,0,0,0,10.79L173,151.39a5.75,5.75,0,0,0,4.46,0l61.24-25.34a5.84,5.84,0,1,0-4.47-10.78l-59,24.41L21.11,75.92,175.2,12.16,329.28,75.92l-67,27.74L198,79.68a13.84,13.84,0,0,0,.55-3.76c0-9.83-10.26-17.52-23.36-17.52s-23.36,7.69-23.36,17.52S162.1,93.44,175.2,93.44a28.22,28.22,0,0,0,15.11-4.17L257,114.16V258a17.52,17.52,0,1,0,11.68,0V224.88a70.94,70.94,0,0,0,23-30.25,5.93,5.93,0,0,0,.32-1.91V151.84a5.84,5.84,0,1,0-11.67,0v39.8a60,60,0,0,1-11.68,17.64V136.84l78.14-32.16a5.85,5.85,0,0,0,3.62-5.4V93.44a5.84,5.84,0,0,0-5.85-5.84ZM175.2,81.76c-7.13,0-11.68-3.46-11.68-5.84s4.55-5.84,11.68-5.84,11.68,3.46,11.68,5.84-4.55,5.84-11.68,5.84Zm87.59,198.55a5.84,5.84,0,1,1,5.85-5.84,5.84,5.84,0,0,1-5.85,5.84Z"/><path d="M286,296.41a5.84,5.84,0,0,0-11.33,2.84l5.84,23.36a5.84,5.84,0,1,0,11.33-2.84Z"/><path class="cls-2" d="M61,242.11S71.86,257.51,97,265.49"/></g></g></svg>