<svg xmlns="http://www.w3.org/2000/svg" viewBox="0 0 284.57 276.3"><defs><style>.cls-1{fill:red;}.cls-2{fill:none;stroke:#000;stroke-linecap:round;stroke-miterlimit:10;stroke-width:12px;}</style></defs><title>Ресурс 1</title><g id="Слой_2" data-name="Слой 2"><g id="Layer_1" data-name="Layer 1"><path class="cls-1" d="M124.41,32.7l.1-.12a4.68,4.68,0,0,0,.52-.64l.09-.12C130.82,25.14,141.45,21,152.87,21s22.06,4.15,27.76,10.83l.09.12a4.42,4.42,0,0,0,.52.64l.1.12a15.11,15.11,0,0,1,3.32,9.23,15.3,15.3,0,0,1-3.32,9.22l-.1.12a5.56,5.56,0,0,0-.53.65l-.09.12a26.21,26.21,0,0,1-7,5.63l-.08,0-.4.22-.06,0a42.69,42.69,0,0,1-20.25,4.89c-11.41,0-22.05-4.14-27.75-10.82l-.09-.12a4.23,4.23,0,0,0-.52-.65l-.1-.12a15.25,15.25,0,0,1-3.32-9.22A15.05,15.05,0,0,1,124.41,32.7Z"/><path d="M233.25,227.33H244.3a5.19,5.19,0,0,0,0-10.37H233.25a5.19,5.19,0,0,0,0,10.37Z"/><path d="M227.5,205.91h22.56a5.18,5.18,0,1,0,0-10.36H227.5a5.18,5.18,0,1,0,0,10.36Z"/><path d="M77.78,201a5.18,5.18,0,0,0-5.18,5.18v1.27a5.18,5.18,0,1,0,10.36,0v-1.27A5.18,5.18,0,0,0,77.78,201Z"/><path d="M154.11,162a5.19,5.19,0,0,0-5.19,5.18v2.47a5.19,5.19,0,1,0,10.37,0V167.2A5.19,5.19,0,0,0,154.11,162Z"/><path d="M19.46,276.29H279.39a5.18,5.18,0,0,0,0-10.36h-2.94V173.64a5.18,5.18,0,0,0-5.18-5.18h-65a5.19,5.19,0,0,0-5.19,5.18v92.29H159.29V211.11h21.16a5.18,5.18,0,0,0,0-10.36H127.76a5.18,5.18,0,1,0,0,10.36h21.16v54.82H107.11V117.3l1-.36a31.25,31.25,0,0,0,14.14-10.42l1.19-1.56,1.19,1.56a31.24,31.24,0,0,0,22.91,12.24l1.4.08v17.79l-16.84,18.06a5.19,5.19,0,0,0,.25,7.33,5.2,5.2,0,0,0,7.33-.26l14.45-15.49,14.45,15.49a5.11,5.11,0,0,0,3.6,1.65,5.18,5.18,0,0,0,4-8.72l-16.84-18.05V117.22l1-.36a31.24,31.24,0,0,0,14-10.38l1.19-1.56,1.19,1.56a31.14,31.14,0,0,0,49.62,0l1.19-1.56,1.19,1.56a31.17,31.17,0,0,0,35.48,10.43l2-.73v32.46a5.18,5.18,0,1,0,10.36,0v-40l.37-.42a31.14,31.14,0,0,0,7.75-20.55V25.19A5.18,5.18,0,0,0,279.39,20H187.94l-.44-.43A39.69,39.69,0,0,0,181.8,15c-8.72-5.82-20.21-9-32.37-9s-23.66,3.2-32.38,9a40.25,40.25,0,0,0-5.7,4.56l-.43.43H19.46a5.18,5.18,0,0,0-5.18,5.18V87.64A31.12,31.12,0,0,0,22,108.19l.38.42V265.93H19.46a5.18,5.18,0,0,0,0,10.36Zm192-97.47h54.62v61.25H211.47Zm0,71.61h54.62v15.5H211.47ZM96.74,265.93h-64V151.29h64Zm0-125h-64V116.19l2,.74A31.17,31.17,0,0,0,70.26,106.5l1.19-1.56,1.19,1.56a31.15,31.15,0,0,0,22.71,12.24l1.39.1Zm73.49-53.78c0,.16,0,.33,0,.49a20.82,20.82,0,0,1-41.61.92v-.12c0-.27,0-.53,0-.79v-19l1.93.59a66.38,66.38,0,0,0,37.75,0l1.94-.59Zm104,.5a20.7,20.7,0,0,1-6.13,14.74l-.11.09a6.26,6.26,0,0,0-.53.51l-.09.09a20.8,20.8,0,0,1-34.76-15.43V58h41.62ZM195.39,32.28l-.54-1.91h79.36V47.62H194.85l.54-1.9a24.49,24.49,0,0,0,0-13.44Zm-7.88,26.13.43-.42h34.29V87.64a20.82,20.82,0,0,1-41.63,0V63.75l.7-.44.49-.32A41.28,41.28,0,0,0,187.51,58.41ZM116.71,29l.12-.13a5.64,5.64,0,0,0,.59-.69l.11-.13c6.55-7.22,18.77-11.71,31.9-11.71s25.35,4.49,31.9,11.71l.1.13a5.6,5.6,0,0,0,.6.69l.12.13A15.74,15.74,0,0,1,186,39a15.91,15.91,0,0,1-3.82,10l-.12.13a5,5,0,0,0-.6.7l-.11.13a29.84,29.84,0,0,1-8,6.08l-.09.05a4,4,0,0,0-.46.24l-.07,0a51.65,51.65,0,0,1-23.27,5.29c-13.13,0-25.35-4.48-31.9-11.7l-.11-.13a5.07,5.07,0,0,0-.59-.7l-.12-.13a15.91,15.91,0,0,1-3.82-10A15.69,15.69,0,0,1,116.71,29Zm-5.36,29.39a39.83,39.83,0,0,0,5.7,4.56l.5.34.7.44V87.16a3.64,3.64,0,0,0,0,.48c0,.27,0,.54,0,.81v.1a20.81,20.81,0,0,1-41.6-.91V58h34.29Zm-86.71-28H104l-.55,1.91a24.49,24.49,0,0,0,0,13.44l.55,1.9H24.64Zm0,27.62H66.26V87.64a20.79,20.79,0,0,1-34.75,15.43l-.11-.1a3.68,3.68,0,0,0-.53-.51l-.1-.09a20.68,20.68,0,0,1-6.13-14.73Z"/><line class="cls-2" x1="6" y1="185.32" x2="6" y2="205.91"/><line class="cls-2" x1="257.1" y1="6" x2="264.58" y2="6"/></g></g></svg>