<svg xmlns="http://www.w3.org/2000/svg" viewBox="0 0 322.8 320.31"><defs><style>.cls-1{fill:red;}.cls-2{fill:none;stroke:#000;stroke-linecap:round;stroke-miterlimit:10;stroke-width:12px;}</style></defs><title>Ресурс 1</title><g id="Слой_2" data-name="Слой 2"><g id="Layer_1" data-name="Layer 1"><circle class="cls-1" cx="235.52" cy="105.25" r="32.21"/><circle class="cls-1" cx="119.52" cy="209.68" r="36.21"/><path d="M70.55,196.65a53.09,53.09,0,0,0,53,52.63H124a53.09,53.09,0,0,0,52.71-53.43,6.53,6.53,0,0,0-6.53-6.45h-.06a6.45,6.45,0,0,0-6.46,6.59,40,40,0,0,1-39.72,40.31h-.27a40,40,0,0,1-.26-80,6.44,6.44,0,0,0,6.45-6.58,6.52,6.52,0,0,0-6.52-6.46h-.06a53.11,53.11,0,0,0-52.71,53.43Z"/><path d="M233.67,0H221a14.12,14.12,0,0,0-14.1,14.1v6.52a74.65,74.65,0,0,0-18,7.51l-4.62-4.61a14,14,0,0,0-9.94-4.15,13.8,13.8,0,0,0-9.95,4.15l-9,9a14,14,0,0,0-4.15,10,13.78,13.78,0,0,0,4.15,9.94L160,57A74.79,74.79,0,0,0,152.44,75h-6.52a14.11,14.11,0,0,0-14.1,14.09v12.72a14.12,14.12,0,0,0,14.1,14.1h6.52A74.65,74.65,0,0,0,160,134l-4.61,4.62a14,14,0,0,0-4.15,9.94,13.79,13.79,0,0,0,4.15,9.95l9,9a14,14,0,0,0,9.95,4.15,13.78,13.78,0,0,0,9.94-4.15l4.62-4.61a74.26,74.26,0,0,0,18,7.51v6.52A14.12,14.12,0,0,0,221,191h12.72a14.12,14.12,0,0,0,14.1-14.1v-6.52a74.49,74.49,0,0,0,18-7.51l4.61,4.61a14,14,0,0,0,9.95,4.15,13.78,13.78,0,0,0,9.94-4.15l9-9a14.11,14.11,0,0,0,0-19.89L294.67,134a74.65,74.65,0,0,0,7.51-18h6.52a14.12,14.12,0,0,0,14.1-14.1V89.13A14.11,14.11,0,0,0,308.7,75h-6.52A74.79,74.79,0,0,0,294.67,57l4.61-4.61a14.11,14.11,0,0,0,0-19.89l-9-9a14,14,0,0,0-9.94-4.15,13.79,13.79,0,0,0-9.95,4.15l-4.61,4.61a74.89,74.89,0,0,0-18-7.51V14.1A14.2,14.2,0,0,0,233.67,0Zm29.44,41.77a6.77,6.77,0,0,0,3.63,1.11,6.48,6.48,0,0,0,4.61-1.9l8.23-8.24a1,1,0,0,1,.73-.33,1,1,0,0,1,.72.33l9,9a1,1,0,0,1,0,1.45l-8.23,8.23a6.49,6.49,0,0,0-.79,8.24,63.66,63.66,0,0,1,9.62,23.19A6.55,6.55,0,0,0,297,88.08h11.66a1,1,0,0,1,1.05,1v12.72a1,1,0,0,1-1.05,1.05H297a6.49,6.49,0,0,0-6.39,5.27A63.66,63.66,0,0,1,281,131.36a6.56,6.56,0,0,0,.79,8.23l8.23,8.24a1,1,0,0,1,0,1.45l-9,9a1,1,0,0,1-.72.33,1,1,0,0,1-.73-.33l-8.23-8.37a6.5,6.5,0,0,0-8.24-.79,63.35,63.35,0,0,1-23.19,9.62,6.55,6.55,0,0,0-5.26,6.39v11.66a1,1,0,0,1-1.06,1.06H220.89a1,1,0,0,1-1.06-1.06V165.09a6.48,6.48,0,0,0-5.26-6.39,63.35,63.35,0,0,1-23.19-9.62,6.59,6.59,0,0,0-8.24.79l-8.23,8.24a1,1,0,0,1-.73.32,1,1,0,0,1-.72-.32l-9-9a1,1,0,0,1-.33-.73,1,1,0,0,1,.33-.72l8.23-8.24a6.47,6.47,0,0,0,.79-8.23A63.66,63.66,0,0,1,163.9,108a6.55,6.55,0,0,0-6.39-5.27H145.85a1,1,0,0,1-1-1V89a1,1,0,0,1,1-1h11.66a6.49,6.49,0,0,0,6.39-5.28,63.69,63.69,0,0,1,9.62-23.18,6.58,6.58,0,0,0-.79-8.24L164.5,43a1,1,0,0,1,0-1.45l9-9a1,1,0,0,1,.72-.33,1,1,0,0,1,.73.33l8.23,8.24a6.5,6.5,0,0,0,8.24.78A63.33,63.33,0,0,1,214.57,32a6.57,6.57,0,0,0,5.26-6.39V14.1A1,1,0,0,1,220.89,13H233.6a1,1,0,0,1,1.06,1.06V25.76a6.49,6.49,0,0,0,5.26,6.39,63.18,63.18,0,0,1,23.19,9.62Z"/><path d="M188.61,95.39a38.74,38.74,0,1,0,38.73-38.73,38.8,38.8,0,0,0-38.73,38.73Zm64.36,0A25.69,25.69,0,1,1,227.28,69.7,25.73,25.73,0,0,1,253,95.39Z"/><path d="M164.79,319l16.14-6.65a16.92,16.92,0,0,0,9.16-22.07l-4.15-10a102.8,102.8,0,0,0,21.21-21.22l10,4.16a16.9,16.9,0,0,0,22.07-9.16L246,237.93a16.9,16.9,0,0,0-9.16-22.07L222,209.73A6.52,6.52,0,0,0,217,221.79l14.83,6.12A3.92,3.92,0,0,1,234,233l-6.72,16.15a3.88,3.88,0,0,1-2.11,2.1,3.82,3.82,0,0,1-3,0l-14.82-6.12a6.51,6.51,0,0,0-7.91,2.37,89.38,89.38,0,0,1-25.09,25.1,6.54,6.54,0,0,0-2.44,7.9L178,295.31a3.92,3.92,0,0,1-2.1,5.07L159.79,307a3.82,3.82,0,0,1-3,0,3.91,3.91,0,0,1-2.11-2.1l-6.12-14.83a6.44,6.44,0,0,0-7.32-3.89,90.15,90.15,0,0,1-35.44,0,6.61,6.61,0,0,0-7.31,3.89l-6.13,14.83a3.9,3.9,0,0,1-5.07,2.1l-16.14-6.72a3.87,3.87,0,0,1-2.11-5.07l6.13-14.82a6.51,6.51,0,0,0-2.37-7.91,89.25,89.25,0,0,1-25.1-25.09A6.55,6.55,0,0,0,39.82,245L25,251.1a3.8,3.8,0,0,1-3,0A3.86,3.86,0,0,1,19.93,249l-6.65-16.14a3.8,3.8,0,0,1,0-3,3.88,3.88,0,0,1,2.1-2.11l14.83-6.12a6.5,6.5,0,0,0,3.88-7.32,90.53,90.53,0,0,1,0-35.44,6.6,6.6,0,0,0-3.88-7.31l-14.83-6.13a3.9,3.9,0,0,1-2.1-5.07L20,144.25a3.9,3.9,0,0,1,5.07-2.11l14.82,6.13a6.5,6.5,0,0,0,7.9-2.37,89.28,89.28,0,0,1,25.1-25.1,6.56,6.56,0,0,0,2.44-7.91L69.2,98.07A3.9,3.9,0,0,1,71.31,93l16.14-6.65a3.89,3.89,0,0,1,5.08,2.11l6.12,14.82a6.52,6.52,0,0,0,12.06-4.94l-6.13-14.82a16.86,16.86,0,0,0-9.16-9.16A17.21,17.21,0,0,0,89,73a17,17,0,0,0-6.46,1.31L66.37,81a16.89,16.89,0,0,0-9.15,22.07l4.15,10A102.55,102.55,0,0,0,40.15,134.3l-10-4.15a16.89,16.89,0,0,0-22.07,9.16L1.28,155.45a16.9,16.9,0,0,0,9.16,22.07l10,4.15a103.08,103.08,0,0,0,0,30l-10,4.15a16.9,16.9,0,0,0-9.16,22.07L7.94,254A16.9,16.9,0,0,0,30,263.16L40,259a103,103,0,0,0,21.21,21.21l-4.15,10a16.88,16.88,0,0,0,9.16,22.06L82.38,319a16.9,16.9,0,0,0,22.07-9.15l4.15-10a103.85,103.85,0,0,0,30,0l4.14,10A16.9,16.9,0,0,0,164.79,319Z"/><line class="cls-2" x1="219.73" y1="289.27" x2="214.4" y2="295.27"/></g></g></svg>