<svg xmlns="http://www.w3.org/2000/svg" viewBox="0 0 395.82 356.23"><defs><style>.cls-1{fill:#ef371f;}.cls-2{fill:none;stroke:#000;stroke-linecap:round;stroke-miterlimit:10;stroke-width:12px;}</style></defs><title>Ресурс 1</title><g id="Слой_2" data-name="Слой 2"><g id="Layer_1" data-name="Layer 1"><rect class="cls-1" x="185.29" y="180.92" width="205.32" height="23.54"/><path d="M0,144.06c3.19-8.86,9.58-12.47,18.84-11.83,3.69.25,8.31,1.09,10.87-.68,2.34-1.63,2.24-6.54,3.65-9.8q5.76-13.26,12-26.31c.9-1.91,1.13-3.06-.58-4.6-3-2.67-5.75-5.56-8.49-8.46-6.46-6.81-6.52-15.35,0-22q11.88-12.16,24-24c6.74-6.58,15.18-6.57,22,0,3.52,3.38,6.71,7.1,9.24,9.81l40.63-16.92c0-3.81-.06-8.56,0-13.32.13-9.4,6.07-15.58,15.41-15.72q17.19-.24,34.4,0C191.16.25,197,5.92,197.38,15c.24,5,.05,10,.05,14.08L238,46c2.47-2.61,5.64-6.16,9-9.48,7-6.86,15.57-6.89,22.6,0q12,11.78,23.75,23.8c6.59,6.78,6.55,15.21.06,22-2.84,3-5.9,5.77-8.67,8.81a3.69,3.69,0,0,0-.8,3.18c2.88,6.18,6.31,12.1,8.93,18.37s4.51,12.82,6.82,19.53c4.51,0,9.14-.06,13.76,0s7.33,2.45,7.3,6.18-2.79,6.11-7.38,6.2c-5.93.11-11.86.08-17.78,0-3.95,0-6.59-1.78-7.48-5.84A131.35,131.35,0,0,0,270.31,96c-2.11-3.29-1.65-6.31,1.13-9.06,4.12-4.07,8.12-8.27,12.33-12.26,2.34-2.23,2.61-4,.15-6.43q-11.34-11.06-22.43-22.39c-2.4-2.45-4.21-2.18-6.44.18-3.71,3.93-7.59,7.7-11.44,11.51s-6,4.28-10.57,1.42a131.17,131.17,0,0,0-41.5-17.18c-5.1-1.14-6.41-3.11-6.47-8.54s-.08-11.08,0-16.62c0-2.9-1-4.21-4.08-4.18q-16.23.16-32.46,0c-3.11,0-4,1.44-4,4.29.1,5.67,0,11.34,0,17,0,4.79-1.27,6.71-5.81,7.77A136.93,136.93,0,0,0,95.9,59.43c-3.28,2.09-6.32,1.57-9.06-1.22C82.69,54,78.42,49.87,74.3,45.61c-2.06-2.13-3.79-2.08-5.87,0Q57,57.21,45.5,68.61c-2,2-1.94,3.63,0,5.56,4.16,4,8.24,8.17,12.29,12.31,3.45,3.51,3.85,5.81,1.24,10A134.36,134.36,0,0,0,41.6,138.66c-1,4.42-3.09,5.93-7.72,6-5.8.1-11.6.13-17.39,0-3-.06-4.15,1.13-4.13,4.11q.13,16,0,32.08c0,3.22,1.37,4.32,4.45,4.24,5.54-.13,11.08-.06,16.62,0,5.13,0,7.19,1.43,8.27,6.28A132.71,132.71,0,0,0,59,233.21c2.71,4.32,2.28,6.55-1.37,10.26-3.89,3.95-7.78,7.89-11.78,11.73-2.19,2.1-2.49,3.86-.16,6.15Q57.17,272.58,68.39,284c2.28,2.33,4.07,2,6.16-.19,3.75-3.9,7.62-7.68,11.47-11.49,4-4,6.15-4.42,10.87-1.48A130.93,130.93,0,0,0,138.4,288c4.74,1,6.17,3.09,6.2,7.92,0,5.92.05,11.85,0,17.78-.06,4.31-2.45,7-6,7.11s-6.26-2.74-6.33-7.23,0-9.26,0-13.09L91.53,283.65c-2.26,2.45-5.28,6-8.55,9.21-7.32,7.27-15.82,7.29-23.17.08q-11.58-11.37-23-22.94c-7.23-7.32-7.22-15.87-.07-23.19,2.7-2.76,5.59-5.36,8.11-8.28a4.17,4.17,0,0,0,.53-3.79,151.12,151.12,0,0,1-14.54-34.81,4.32,4.32,0,0,0-3-2.36,41.52,41.52,0,0,0-8.49-.07c-9.31.77-16-2.67-19.33-11.69Z"/><path d="M277.5,356.09c-32.08,0-64.17-.31-96.24.13-15,.21-22.86-9.56-22.78-23,.27-50.89.1-101.79.11-152.68,0-11.34,5.48-19.06,15.23-21.31a29.47,29.47,0,0,1,6.51-.54q96.82,0,193.65,0c14,0,21.82,7.78,21.83,21.71q0,76.92,0,153.84c0,14-7.65,21.82-21.68,21.85q-48.31.09-96.63,0Zm-.74-12.4H323.9c17,0,34,0,51-.05,6,0,8.38-2.54,8.51-8.5,0-1.29,0-2.58,0-3.87V181.35c0-8.21-2.07-10.27-10.29-10.27H181.49c-8.43,0-10.51,2.07-10.51,10.48V333c0,8.62,2,10.65,10.72,10.65Z"/><path d="M163.54,79.32c34.48-1.55,70.07,22.86,81.56,55.93,1.38,4,.15,7.43-3.14,8.77-3.5,1.42-6.84-.14-8.47-4.43-4.52-11.94-11.38-22.28-21.27-30.31-22.09-17.91-46.84-22.64-73.47-12.43-26,10-41.59,29.44-45.93,56.9-5.48,34.65,13.08,66,45.86,79.33a13,13,0,0,1,4,2.26,5.57,5.57,0,0,1,1,7.4c-1.65,2.77-4.36,3.94-7.29,2.65-6-2.64-12.23-5-17.6-8.64C90.28,217.51,77,190.36,79.87,156.22c3.5-41.18,38-74,79-76.55C160.46,79.57,162,79.43,163.54,79.32Z"/><path d="M264.48,302.21a32.41,32.41,0,0,1,2.82-3.92q28-28.05,56-56a30.58,30.58,0,0,1,2.81-2.65c2.71-2.1,6.24-2,8.38.38,2.31,2.54,2.45,5.3.34,8a27,27,0,0,1-2.34,2.56l-62,62c-5.21,5.21-7.64,5.21-12.88,0q-17.77-17.75-35.51-35.53a17.53,17.53,0,0,1-3.16-3.85c-1.38-2.57-1-5.51,1.39-6.88,1.91-1.1,4.72-1.1,7-.83,1.26.15,2.41,1.8,3.5,2.89C241.74,279.34,252.63,290.29,264.48,302.21Z"/><path d="M257,210.66H194.44a23,23,0,0,1-4.24-.18,5.57,5.57,0,0,1-4.86-5.22c-.32-3,.9-5.36,3.85-6.34a15.64,15.64,0,0,1,4.93-.62q63.32-.06,126.65,0a15.35,15.35,0,0,1,4.92.65c2.93,1,4.12,3.35,3.78,6.39a5.58,5.58,0,0,1-4.92,5.17,23,23,0,0,1-4.24.17Z"/><path d="M356.26,210.56a66.71,66.71,0,0,1-6.93-.05A5.52,5.52,0,0,1,344,205c-.23-3.24,1.3-5.91,4.48-6.19a101.68,101.68,0,0,1,16.09-.06c3.23.24,4.88,3,4.69,6.09a5.66,5.66,0,0,1-5.64,5.73c-2.43.17-4.88,0-7.32,0Z"/><line class="cls-2" x1="35.27" y1="298.11" x2="43.98" y2="306.83"/></g></g></svg>