<svg xmlns="http://www.w3.org/2000/svg" viewBox="0 0 359.42 335.7"><defs><style>.cls-1{fill:#ef371f;}.cls-2{fill:none;stroke:#000;stroke-linecap:round;stroke-miterlimit:10;stroke-width:12px;}</style></defs><title>Ресурс 1</title><g id="Слой_2" data-name="Слой 2"><g id="Layer_1" data-name="Layer 1"><path class="cls-1" d="M285.4,330.51l14.69-38.85c5.38-14.23,12.2-22.73,18.25-22.73s12.87,8.5,18.25,22.73l14.69,38.85Z"/><path d="M167.59,187.38a5.6,5.6,0,0,0,6.27,0,36.92,36.92,0,0,0,0-61.32,5.64,5.64,0,0,0-6.27,0,36.92,36.92,0,0,0,0,61.32Zm3.14-49.51a25.69,25.69,0,0,1,0,37.71,25.67,25.67,0,0,1,0-37.71Zm85.82,192.21a5.61,5.61,0,0,1-5.61,5.61H164a5.61,5.61,0,0,1-5.25-7.6l36.64-96.88c14.29-37.78,33.56-58.58,54.27-58.58s40,20.8,54.27,58.59l.81,2.14a5.62,5.62,0,0,1-10.52,4l-.81-2.14c-12.33-32.62-28.28-51.33-43.75-51.33s-31.42,18.71-43.76,51.33l-33.76,89.27h78.81a5.61,5.61,0,0,1,5.61,5.62ZM58,227.51A62.43,62.43,0,0,1,66,169.26a5.61,5.61,0,0,1,5.88-2.16,62.21,62.21,0,0,1,41.52,33.59,5.62,5.62,0,0,1-10.13,4.87A50.93,50.93,0,0,0,73,179.08a51.23,51.23,0,0,0,19,71.78,115.87,115.87,0,0,1-8.73-27.42,2,2,0,0,1,0-.24,5.62,5.62,0,0,1,11.09-1.78,104.34,104.34,0,0,0,18.63,42.92,5.62,5.62,0,0,1-9.06,6.66c-1.12-1.53-2.2-3.09-3.25-4.66A62.41,62.41,0,0,1,58,227.51Zm83.19,96.95h-5.36v-205a27.05,27.05,0,0,1,20.47-26.24,5.61,5.61,0,0,0,4.23-5.44V51.79H181V87.73a5.62,5.62,0,0,0,4.24,5.44,27.06,27.06,0,0,1,20.46,26.24v52.5a5.62,5.62,0,0,0,11.24,0v-52.5a38.29,38.29,0,0,0-24.7-35.8v-33a5.63,5.63,0,0,0,2.21-4.47V5.62A5.62,5.62,0,0,0,188.79,0H152.66A5.62,5.62,0,0,0,147,5.62V46.18a5.61,5.61,0,0,0,2.22,4.47v33a38.28,38.28,0,0,0-24.71,35.8V330.08a5.61,5.61,0,0,0,5.62,5.61h11a5.62,5.62,0,1,0,0-11.23ZM158.28,11.24h24.89V40.56H158.28Zm117.55,215.5a5.62,5.62,0,0,1,0,11.24h-1.69a5.62,5.62,0,0,1,0-11.24ZM108.91,283.81c-3.82-.37-7.63-.51-11.43-.53a62.47,62.47,0,0,0-97.26,33,5.63,5.63,0,0,0,1.92,6,62.48,62.48,0,0,0,97.38-27.76c2.77.05,5.54.2,8.31.47a5.62,5.62,0,0,0,1.08-11.19ZM56.57,322a51.18,51.18,0,0,1-44.34-6.23,51.23,51.23,0,0,1,65-30.62,119.65,119.65,0,0,0-13.3,3.21l-.14.05h0a5.62,5.62,0,0,0,3.43,10.7,105.79,105.79,0,0,1,20-4A51.18,51.18,0,0,1,56.57,322Zm210.06-26.64a5.61,5.61,0,0,1-5.62,5.62h-1.68a5.62,5.62,0,1,1,0-11.24H261a5.62,5.62,0,0,1,5.62,5.62Zm64.51,14.48a5.63,5.63,0,0,1-5.63,5.62h-1.68a5.62,5.62,0,0,1,0-11.24h1.68a5.63,5.63,0,0,1,5.63,5.62ZM230.78,232.36a5.62,5.62,0,0,1-5.62,5.62h-1.69a5.62,5.62,0,0,1,0-11.24h1.69a5.62,5.62,0,0,1,5.62,5.62Zm128.27,95.73-17.56-46.46c-9.38-24.78-20.82-30-28.77-30s-19.39,5.2-28.76,30l-17.57,46.46a5.63,5.63,0,0,0,5.26,7.61H353.8a5.62,5.62,0,0,0,5.25-7.61Zm-79.27-3.63,14.7-38.86c5.38-14.22,12.2-22.72,18.24-22.72s12.87,8.5,18.25,22.73l14.69,38.85ZM232.67,256a5.62,5.62,0,0,1,5.61-5.62H240a5.62,5.62,0,1,1,0,11.24h-1.69a5.62,5.62,0,0,1-5.61-5.62Zm0-44.87a5.62,5.62,0,0,1,5.61-5.62H240a5.62,5.62,0,0,1,0,11.24h-1.69a5.61,5.61,0,0,1-5.61-5.62ZM248.81,238a5.62,5.62,0,0,1,0-11.24h1.68a5.62,5.62,0,1,1,0,11.24Zm10.52-21.2a5.62,5.62,0,1,1,0-11.24H261a5.62,5.62,0,0,1,0,11.24Z"/><line class="cls-2" x1="233.23" y1="125.15" x2="233.23" y2="145.8"/></g></g></svg>