<svg xmlns="http://www.w3.org/2000/svg" viewBox="0 0 386.67 296.05"><defs><style>.cls-1{fill:#ef371f;}.cls-2,.cls-3,.cls-4,.cls-5{stroke:#000;stroke-miterlimit:10;}.cls-2{stroke-width:2px;}.cls-3{fill:none;stroke-linecap:round;stroke-width:12px;}.cls-4{stroke-width:4px;}.cls-5{stroke-width:3px;}</style></defs><title>Ресурс 1</title><g id="Слой_2" data-name="Слой 2"><g id="Layer_1" data-name="Layer 1"><rect class="cls-1" x="52" y="23.76" width="299.5" height="22.5"/><path class="cls-2" d="M354.21,1H39.4a5.19,5.19,0,0,0-5.19,5.19V289.86a5.19,5.19,0,0,0,5.19,5.19H354.21a5.18,5.18,0,0,0,5.18-5.19V234.51a5.19,5.19,0,1,0-10.37,0v50.16H44.59V52.89H349V213.76a5.19,5.19,0,1,0,10.37,0V6.19A5.18,5.18,0,0,0,354.21,1ZM44.59,11.38h192V42.51h-192ZM247,42.51V11.38H349V42.51Z"/><path class="cls-2" d="M298.16,21.41A5.54,5.54,0,1,0,303.7,27a5.54,5.54,0,0,0-5.54-5.54Z"/><path class="cls-2" d="M269.79,21.41A5.54,5.54,0,1,0,275.33,27a5.54,5.54,0,0,0-5.54-5.54Z"/><path class="cls-2" d="M326.53,21.41A5.54,5.54,0,1,0,332.06,27a5.54,5.54,0,0,0-5.53-5.54Z"/><line class="cls-3" x1="6" y1="21.41" x2="6" y2="73.26"/><line class="cls-3" x1="6" y1="91.6" x2="6" y2="108.26"/><line class="cls-3" x1="380.67" y1="255.6" x2="380.67" y2="271.6"/><path class="cls-4" d="M143.1,209.08c-9.64,0-17.94-2.06-25.31-6.27-7-4-13.08-9.69-19.11-17.87-8.58-11.61-16.09-25-24.36-43.39-1.16-2.58-1.2-4.74-.12-6.44s3-2.59,5.86-2.63c6-.12,12.08-.12,18.69,0,3.47.05,6.17,2,7.61,5.54a111.48,111.48,0,0,0,12.31,22.81,18,18,0,0,0,4.08,4.57,3.37,3.37,0,0,0,.58.32,3.08,3.08,0,0,0,.32-.59,13.94,13.94,0,0,0,.89-4.09,69.67,69.67,0,0,0-.29-16.52c-.37-2.53-1.58-3.85-3.92-4.29a4.12,4.12,0,0,1-3.37-2.43c-.67-1.9.65-3.45,1.14-4A9.57,9.57,0,0,1,126,129.9h21.46a3.07,3.07,0,0,1,.53,0c5.38,1.06,6.28,4.47,6.75,7.88,0,.12,0,.24,0,.36l0,23.84v.08c0,1.06.62,3.09,1.18,3.44a6.57,6.57,0,0,0,1.23-1.14l.23-.24c5.21-5.53,8.8-12.16,11.63-17.91,1.47-3,2.75-6.13,3.83-8.84a7.26,7.26,0,0,1,7.39-5l20.63,0a13,13,0,0,1,2.28.15c1.65.28,4,.9,5.25,3s.74,4.42.23,6c-1.76,5.55-5.05,10.1-8.23,14.51l-.37.5c-1.63,2.26-3.33,4.5-5,6.67-1.85,2.44-3.77,5-5.56,7.49-1.2,1.67-1.72,2.8-1.65,3.57s.82,1.83,2.34,3.31h0c1.13,1.1,2.31,2.21,3.44,3.29a114.16,114.16,0,0,1,9.52,9.75,39.48,39.48,0,0,1,4.9,7.09,8.39,8.39,0,0,1,.06,8A6.37,6.37,0,0,1,203,209H183.89c-5.25.4-10-1.53-14.13-5.73-1.82-1.85-3.56-3.8-5.24-5.68-.79-.89-1.61-1.8-2.42-2.69a15.21,15.21,0,0,0-2.89-2.59,2.26,2.26,0,0,0-1.48-.51c-.3.07-.67.48-1,1.08-1.18,2.15-1.52,4.63-1.67,7.69-.26,5.79-2.68,8.15-8.62,8.42C145.31,209.06,144.19,209.08,143.1,209.08Zm-64.26-71a4.81,4.81,0,0,0,.41,1.28c8.11,18,15.44,31.11,23.78,42.4,5.57,7.55,11.12,12.76,17.45,16.38,7.28,4.17,15.69,6,25.71,5.49,2.08-.09,2.71-.41,2.89-.58s.49-.67.58-2.69a22.5,22.5,0,0,1,2.33-10,7,7,0,0,1,4.42-3.73,7.14,7.14,0,0,1,5.75,1.22,21.2,21.2,0,0,1,3.94,3.48c.83.91,1.65,1.84,2.45,2.73,1.64,1.84,3.34,3.74,5.08,5.5,3.05,3.12,6.21,4.43,9.93,4.12h19.11a1,1,0,0,0,.75-.57,3.11,3.11,0,0,0-.15-2.85,35.65,35.65,0,0,0-4.26-6.11,110,110,0,0,0-9.08-9.29c-1.15-1.08-2.33-2.21-3.49-3.34h0c-4.91-4.78-5.25-8.42-1.32-13.9,1.84-2.58,3.77-5.14,5.65-7.61,1.63-2.14,3.31-4.36,4.9-6.56l.37-.51c3.06-4.25,6-8.25,7.46-13a4,4,0,0,0,.28-1.55,4.37,4.37,0,0,0-1.52-.46,9.71,9.71,0,0,0-1.37-.07l-20.66,0h0c-1.22,0-1.73.21-2.29,1.62-1.12,2.81-2.44,6.08-4,9.23-3,6.11-6.84,13.18-12.54,19.23l-.22.23c-1.21,1.29-3.47,3.7-6.88,2.59l-.09,0c-3.75-1.37-4.85-6.4-4.8-8.66l0-23.62a6.19,6.19,0,0,0-.66-2.38c-.08-.11-.31-.42-1.51-.69H126a4.21,4.21,0,0,0-2,.41,9.85,9.85,0,0,1,5.65,8,74.48,74.48,0,0,1,.33,17.79,18.78,18.78,0,0,1-1.3,5.72,5.53,5.53,0,0,1-8.94,2.63,22.46,22.46,0,0,1-5.43-5.9,117.49,117.49,0,0,1-12.91-23.9c-.77-1.89-1.79-2.16-2.69-2.17-6.55-.11-12.6-.11-18.5,0A5.29,5.29,0,0,0,78.84,138.05Z"/><path class="cls-5" d="M293.57,131.93H257.09a22.48,22.48,0,0,0-22.46,22.46v36.48a22.49,22.49,0,0,0,22.46,22.47h36.48A22.5,22.5,0,0,0,316,190.87V154.39a22.49,22.49,0,0,0-22.47-22.46Zm15.24,58.94a15.25,15.25,0,0,1-15.24,15.24H257.09a15.26,15.26,0,0,1-15.24-15.24V154.39a15.26,15.26,0,0,1,15.24-15.24h36.48a15.26,15.26,0,0,1,15.24,15.24Z"/><path class="cls-5" d="M275.33,151.66a21,21,0,1,0,21,21,21,21,0,0,0-21-21Zm0,34.73a13.76,13.76,0,1,1,13.76-13.76,13.77,13.77,0,0,1-13.76,13.76Z"/><path class="cls-5" d="M297.19,145.53a5.31,5.31,0,1,0,3.74,1.55,5.3,5.3,0,0,0-3.74-1.55Z"/></g></g></svg>