<svg xmlns="http://www.w3.org/2000/svg" viewBox="0 0 358.27 328.02"><defs><style>.cls-1{fill:#ef371f;}.cls-2{fill:none;stroke:#000;stroke-linecap:round;stroke-miterlimit:10;stroke-width:12px;}</style></defs><title>Ресурс 1</title><g id="Слой_2" data-name="Слой 2"><g id="Layer_1" data-name="Layer 1"><rect class="cls-1" x="35.49" y="93.45" width="59.25" height="200.85"/><path d="M328.69,28.38H29.58A29.61,29.61,0,0,0,0,58V270.9a29.61,29.61,0,0,0,29.58,29.58H328.69a29.61,29.61,0,0,0,29.58-29.58V58a29.61,29.61,0,0,0-29.58-29.58ZM11.83,270.9V75.7h76.9v213H29.58A17.77,17.77,0,0,1,11.83,270.9Zm316.86,17.75H100.56V75.7H310.94a5.92,5.92,0,1,0,0-11.83H11.83V58A17.77,17.77,0,0,1,29.58,40.21H328.69A17.77,17.77,0,0,1,346.44,58v5.91H334.61a5.92,5.92,0,1,0,0,11.83h11.83V270.9a17.77,17.77,0,0,1-17.75,17.75Z"/><path d="M29.58,46.12a5.91,5.91,0,1,0,4.18,1.73,6,6,0,0,0-4.18-1.73Z"/><path d="M47.32,46.12a5.91,5.91,0,1,0,4.19,1.73,6,6,0,0,0-4.19-1.73Z"/><path d="M65.07,46.12a5.91,5.91,0,1,0,4.18,1.73,6,6,0,0,0-4.18-1.73Z"/><path d="M29.58,99.36H71a5.92,5.92,0,1,0,0-11.83H29.58a5.92,5.92,0,1,0,0,11.83Z"/><path d="M71,111.19H29.58a5.92,5.92,0,1,0,0,11.83H71a5.92,5.92,0,1,0,0-11.83Z"/><path d="M71,134.85H29.58a5.92,5.92,0,1,0,0,11.83H71a5.92,5.92,0,1,0,0-11.83Z"/><path d="M53.24,158.51H29.58a5.92,5.92,0,1,0,0,11.84H53.24a5.92,5.92,0,0,0,0-11.84Z"/><path d="M53.24,182.17H29.58a5.92,5.92,0,1,0,0,11.83H53.24a5.92,5.92,0,0,0,0-11.83Z"/><path d="M35.49,205.84H29.58a5.92,5.92,0,1,0,0,11.83h5.91a5.92,5.92,0,1,0,0-11.83Z"/><path d="M153.88,152.2a28.36,28.36,0,0,1,20.21,8.38,5.72,5.72,0,1,0,8.08-8.09,40,40,0,1,0,0,56.59,5.71,5.71,0,0,0-8.08-8.08,28.58,28.58,0,1,1-20.21-48.8Z"/><path d="M233.93,195.56a28.59,28.59,0,0,0-11.42-54.79h-22.9a5.71,5.71,0,0,0-5.71,5.72,5.15,5.15,0,0,0,0,.56v68a5.72,5.72,0,0,0,11.44,0V152.2h17.15a17.16,17.16,0,0,1,0,34.31,5.72,5.72,0,0,0-4,9.76l22.87,22.86a5.72,5.72,0,0,0,8.09-8.08Z"/><path d="M326.85,141a5.72,5.72,0,0,0-6.43,2.76l-23.59,42.46-23.59-42.46a5.71,5.71,0,0,0-10.71,2.78v68.6a5.72,5.72,0,1,0,11.43,0V168.55l17.87,32.16a5.71,5.71,0,0,0,10,0l17.87-32.16v46.54a5.72,5.72,0,1,0,11.43,0v-68.6a5.72,5.72,0,0,0-4.28-5.54Z"/><line class="cls-2" x1="41.41" y1="322.02" x2="70.98" y2="322.02"/><path class="cls-2" d="M307.8,6h20.89s14.7-.17,20.7,5.69"/><line class="cls-2" x1="326.29" y1="100.52" x2="326.29" y2="114.67"/></g></g></svg>