<svg xmlns="http://www.w3.org/2000/svg" xmlns:xlink="http://www.w3.org/1999/xlink" viewBox="0 0 402.44 408.48"><defs><style>.cls-1,.cls-3{fill:none;}.cls-2{fill:#ef371f;}.cls-3,.cls-5{stroke:#000;stroke-miterlimit:10;}.cls-3{stroke-linecap:round;stroke-width:12px;}.cls-4{clip-path:url(#clip-path);}.cls-5{stroke-width:3px;}</style><clipPath id="clip-path" transform="translate(-67.78 -55.61)"><path class="cls-1" d="M340.72,315H389l59.87-5.5s112.38-51,108.38-86.5-49-119.5-49-119.5-73-60-140-80.5-193-23-193-23-110,13.5-133,42-52,320.5-39,340,149,101.5,149,101.5l96.5,25.5s55,1,66-6.5,62-18,63.5-18,40-21.5,40-21.5l-23.1-47.84L325.22,411Z"/></clipPath></defs><title>Ресурс 1</title><g id="Слой_2" data-name="Слой 2"><g id="Layer_1" data-name="Layer 1"><rect class="cls-2" x="344.19" y="262.89" width="15.75" height="94.75"/><path class="cls-2" d="M229.67,73.89l26.1,71.27L226,153.08c-2.85-11.46-9.54-38.89-11.08-50.63-1.42-10.8,3.3-20,14.79-28.56Z" transform="translate(-67.78 -55.61)"/><path class="cls-2" d="M308,76.13c11.49,8.57,16.21,17.76,14.79,28.55-1.55,11.74-8.23,39.19-11.08,50.63l-29.81-7.92Z" transform="translate(-67.78 -55.61)"/><line class="cls-3" x1="56.56" y1="263.76" x2="56.56" y2="305.47"/><line class="cls-3" x1="373.93" y1="209.11" x2="388.18" y2="202.12"/><rect class="cls-3" x="303.49" y="259.39" width="57.95" height="100.16" rx="10.6" ry="10.6"/><g class="cls-4"><path class="cls-5" d="M468.16,225.44,414.31,118.77c-1.82-6.07-8.84-15.65-43.89-30-15.66-6.41-30.68-11.2-35.95-12.83-4.21-6.5-10.74-12.49-19.62-18h0a5.14,5.14,0,0,0-2.77-.81H226a5.17,5.17,0,0,0-2.78.81h0c-8.88,5.56-15.41,11.55-19.62,18-5.26,1.63-20.3,6.42-35.95,12.83-35.06,14.33-42.07,23.91-43.89,30L69.85,225.44a5.26,5.26,0,0,0,2.41,7.12L149,269.78V451.61a5.29,5.29,0,0,0,3.51,5c1.72.61,19.66,6,116.45,6h0c96.79,0,114.73-5.4,116.46-6a5.28,5.28,0,0,0,3.5-5V269.78l76.78-37.22a5.27,5.27,0,0,0,2.41-7.12Zm-58.51-92.5,33,64.73-54.14,24,.43-8.38c0-28.11,13.46-63.39,20.68-80.3Zm-95-62.4c11.49,8.57,16.21,17.76,14.79,28.55-1.55,11.75-8.23,39.19-11.09,50.63l-29.8-7.92ZM276.92,143,269,154.48,261.09,143,239.21,83.23H298.8Zm27.59-75.33-1.84,5H235.34l-1.84-5Zm-81.18,2.89,26.1,71.26-29.8,7.92c-2.86-11.45-9.54-38.88-11.09-50.63-1.42-10.79,3.3-20,14.79-28.55ZM149,258.06,81.68,225.41l8.93-17.11,58.57,28Zm.14-33.52L95.36,198.88l33-65.94c7.23,16.9,20.69,52.16,20.69,80.3Zm229.25-11.3V447.38C369.75,448.88,342.74,452,269,452s-100.75-3.16-109.43-4.66V213.24c0-36.58-20.32-82.29-25.2-92.74,5.08-8.73,34.64-22.22,64-31.85a37,37,0,0,0-.27,11.82c2,15.58,12.19,55.34,12.62,57a5.29,5.29,0,0,0,2.44,3.24,5.55,5.55,0,0,0,4,.55l36.95-9.82,9.6,13.95v43.14a5.27,5.27,0,0,0,10.54,0V165.44l9.61-14,37,9.82a5.24,5.24,0,0,0,4-.55,5.36,5.36,0,0,0,2.44-3.24c.43-1.69,10.57-41.45,12.62-57a36.71,36.71,0,0,0-.27-11.82c29.35,9.62,58.9,23.12,64,31.85-4.89,10.45-25.21,56.16-25.21,92.74ZM389,258.06l-.43-24.7,58.89-26.27,8.9,18.32Z" transform="translate(-67.78 -55.61)"/></g><circle cx="333.44" cy="342.27" r="5.62"/></g></g></svg>