<svg xmlns="http://www.w3.org/2000/svg" viewBox="0 0 242.54 337.39"><defs><style>.cls-1{fill:#ef371f;}.cls-2{fill:none;stroke:#000;stroke-linecap:round;stroke-miterlimit:10;stroke-width:12px;}</style></defs><title>Ресурс 1</title><g id="Слой_2" data-name="Слой 2"><g id="Layer_1" data-name="Layer 1"><circle class="cls-1" cx="129" cy="143.91" r="51.9"/><path d="M121,64.7A70.33,70.33,0,0,0,76.46,80.61a6.15,6.15,0,1,0,7.8,9.5A58,58,0,0,1,121,77a6.15,6.15,0,0,0,0-12.29Z"/><path d="M62.3,96.34a70.19,70.19,0,1,0,82.2-27.6,6.15,6.15,0,0,0-4.12,11.59A57.89,57.89,0,1,1,72.56,103.1a6.14,6.14,0,0,0-1.75-8.51,6.06,6.06,0,0,0-3.37-1A6.14,6.14,0,0,0,62.3,96.34Z"/><line class="cls-2" x1="127.27" y1="325.44" x2="136.77" y2="331.39"/><polyline class="cls-2" points="171.84 9.05 191.34 6.55 194.27 14.13"/><path d="M241.33,130.52h0L223.17,106.8l0-.2,3.85-29.42A5.91,5.91,0,0,0,223.46,71L195.85,59.53l-11.42-27.6a5.93,5.93,0,0,0-6.23-3.6l-29.62,3.88-.16-.13-23.56-18a5.91,5.91,0,0,0-7.18,0L94,32.21,64.34,28.33a6.64,6.64,0,0,0-.77,0,5.9,5.9,0,0,0-5.45,3.65L46.69,59.53,19.09,71a5.92,5.92,0,0,0-3.6,6.22l3.88,29.62-.13.17-18,23.55a5.9,5.9,0,0,0,0,7.18l18.16,23.72L15.49,191a5.91,5.91,0,0,0,3.6,6.22l27.6,11.43,11.43,27.6a5.86,5.86,0,0,0,4.46,3.56l1.25.22V326a5.89,5.89,0,0,0,9.06,5l48.38-30.69L169.65,331a6,6,0,0,0,6,.19,5.9,5.9,0,0,0,3.06-5.17V240.06l1.25-.21a5.87,5.87,0,0,0,4.46-3.55l11.42-27.61,27.61-11.42a5.92,5.92,0,0,0,3.59-6.22l-3.87-29.63.12-.17,18-23.55A5.91,5.91,0,0,0,241.33,130.52ZM166.91,315.27l-42.48-26.94a5.91,5.91,0,0,0-6.32,0L75.63,315.27V238.41L94,236l.17.13,23.55,18a5.83,5.83,0,0,0,3.59,1.22,6,6,0,0,0,3.59-1.22L148.58,236l18.33,2.4Zm45.41-159.08a5.82,5.82,0,0,0-1.17,4.34l3.61,27.56-25.68,10.63a5.87,5.87,0,0,0-3.2,3.2l-10.63,25.67L147.69,224a5.85,5.85,0,0,0-4.35,1.16l-22.07,16.9-22.06-16.9A5.93,5.93,0,0,0,94.85,224l-27.56,3.6L56.66,201.92a5.92,5.92,0,0,0-3.19-3.2L27.79,188.09l3.6-27.56a5.91,5.91,0,0,0-1.16-4.35L13.34,134.11,30.23,112a5.85,5.85,0,0,0,1.16-4.35l-3.6-27.56L53.47,69.5a5.93,5.93,0,0,0,3.19-3.19L67.3,40.63l27.55,3.61a5.86,5.86,0,0,0,4.35-1.17l22.07-16.89,22.07,16.89a5.93,5.93,0,0,0,4.36,1.17l27.55-3.61,10.63,25.68a5.85,5.85,0,0,0,3.2,3.19l25.68,10.64-3.61,27.55a5.89,5.89,0,0,0,1.17,4.35l16.89,22.07Z"/></g></g></svg>