<svg xmlns="http://www.w3.org/2000/svg" viewBox="0 0 373.67 370.4"><defs><style>.cls-1{fill:#cd1f17;}.cls-2,.cls-3{stroke:#000;stroke-miterlimit:10;}.cls-2{stroke-width:6px;}.cls-3{fill:none;stroke-linecap:round;stroke-width:12px;}</style></defs><title>Ресурс 1</title><g id="Слой_2" data-name="Слой 2"><g id="Layer_1" data-name="Layer 1"><path class="cls-1" d="M304.6,81.35H234.2a10,10,0,0,1,0-20h70.4a10,10,0,1,1,0,20Z"/><path d="M327.4,0h-128a18.73,18.73,0,0,0-12.8,5.05,18.73,18.73,0,0,0-12.8-5H45.8A18.82,18.82,0,0,0,27,18.8V351.6a18.82,18.82,0,0,0,18.8,18.8h128a18.73,18.73,0,0,0,12.8-5,18.73,18.73,0,0,0,12.8,5h128a18.82,18.82,0,0,0,18.8-18.8V18.8A18.82,18.82,0,0,0,327.4,0ZM180.6,25.6h-6.8a6,6,0,0,0,0,12h6.8V332.8h-6.8a6,6,0,0,0,0,12h6.8v6.8a6.81,6.81,0,0,1-6.8,6.8H45.8a6.81,6.81,0,0,1-6.8-6.8V18.8A6.81,6.81,0,0,1,45.8,12h128a6.81,6.81,0,0,1,6.8,6.8Zm153.6,326a6.81,6.81,0,0,1-6.8,6.8h-128a6.81,6.81,0,0,1-6.8-6.8v-6.8h6.8a6,6,0,1,0,0-12h-6.8V37.6h6.8a6,6,0,0,0,0-12h-6.8V18.8a6.81,6.81,0,0,1,6.8-6.8h128a6.81,6.81,0,0,1,6.8,6.8Z"/><path d="M298.6,44.8H228.2a22,22,0,0,0,0,44h70.4a22,22,0,0,0,0-44Zm0,32H228.2a10,10,0,0,1,0-20h70.4a10,10,0,0,1,0,20Z"/><path d="M301.8,114.4a6,6,0,0,0,0-12H225a6,6,0,0,0,0,12Z"/><path d="M206.2,166a6,6,0,0,0,6,6h89.6a6,6,0,0,0,0-12H212.2a6,6,0,0,0-6,6Z"/><path d="M212.2,197.6h64a6,6,0,0,0,0-12h-64a6,6,0,0,0,0,12Z"/><path d="M314.6,185.6H301.8a6,6,0,0,0,0,12h12.8a6,6,0,0,0,0-12Z"/><path d="M212.2,223.2h89.6a6,6,0,0,0,0-12H212.2a6,6,0,0,0,0,12Z"/><path d="M212.2,248.8h64a6,6,0,0,0,0-12h-64a6,6,0,0,0,0,12Z"/><path d="M314.6,236.8H301.8a6,6,0,0,0,0,12h12.8a6,6,0,0,0,0-12Z"/><path d="M212.2,274.4h89.6a6,6,0,1,0,0-12H212.2a6,6,0,0,0,0,12Z"/><path d="M276.2,288h-64a6,6,0,0,0,0,12h64a6,6,0,1,0,0-12Z"/><path d="M314.6,288H301.8a6,6,0,1,0,0,12h12.8a6,6,0,0,0,0-12Z"/><path class="cls-2" d="M146.13,143.84c1.73.64,2.14,1.95,2.13,3.67,0,7.16,0,14.31,0,21.47v1.33c-.41,0-.71.06-1,.06H124.71c-1.6,0-2.43-.55-2.77-1.79a2.23,2.23,0,0,1,1.63-2.87,7.3,7.3,0,0,1,1.74-.18c4.26,0,8.53,0,12.79,0h1.25l.16-.28c-1.17-1.22-2.29-2.51-3.52-3.66A38.37,38.37,0,0,0,75.7,171.94a36.62,36.62,0,0,0-4.23,16,14.44,14.44,0,0,1-.17,1.87A2.37,2.37,0,0,1,68.78,192a2.2,2.2,0,0,1-2.18-2.3,51.64,51.64,0,0,1,.61-7.57c2.54-13.56,9.88-23.84,21.94-30.47a41.76,41.76,0,0,1,33-3.45,42.46,42.46,0,0,1,20.52,13.34c.15.18.31.35.71.79V147.48c0-2.26.35-2.82,2.32-3.64Z"/><path class="cls-2" d="M76.19,217.18c0,5,0,10,0,15a2.75,2.75,0,0,1-1.63,2.85,2.44,2.44,0,0,1-3.24-2.46c0-1,0-2,0-3V208.88c.43,0,.77-.07,1.1-.07h22.4c1.65,0,2.49.57,2.83,1.88a2.29,2.29,0,0,1-1.53,2.76,7.25,7.25,0,0,1-1.85.21c-4.27,0-8.53,0-12.79,0H80.2L80,214c1.44,1.45,2.79,3,4.32,4.34a38.38,38.38,0,0,0,60.58-13.24,35.79,35.79,0,0,0,3.14-13q0-1.11.15-2.22c.17-1.77,1.17-2.74,2.65-2.61s2.18,1.22,2.16,3a41.18,41.18,0,0,1-1.6,11.09,42.63,42.63,0,0,1-18.64,24.92,42.11,42.11,0,0,1-26.57,6.5,41.68,41.68,0,0,1-23.88-9.76C80.2,221.16,78.29,219.16,76.19,217.18Z"/><line class="cls-3" x1="6" y1="265.34" x2="6" y2="314.82"/><line class="cls-3" x1="367.67" y1="24.51" x2="367.67" y2="42.82"/><path class="cls-3" d="M72.75,136.51s7.25-9.75,23.5-9.75"/></g></g></svg>