<svg xmlns="http://www.w3.org/2000/svg" xmlns:xlink="http://www.w3.org/1999/xlink" viewBox="0 0 452.81 422.04"><defs><style>.cls-1,.cls-3{fill:none;}.cls-2{fill:#ef371f;}.cls-3,.cls-5{stroke:#000;stroke-miterlimit:10;}.cls-3{stroke-linecap:round;stroke-width:12px;}.cls-4{clip-path:url(#clip-path);}.cls-5{stroke-width:6px;}</style><clipPath id="clip-path" transform="translate(-40.03)"><path class="cls-1" d="M168.1,83.3c3.2,2.4,40.82,33.62,40.82,33.62s4.81,30.42,8,32S289,244.39,289,244.39l30.36,5.41V211.07l-21.7-60.87,56.12,7.54L393,221l64,237.74L148.14,479.53,0,441.91,17.61,87.3,168.9,70.49Z"/></clipPath></defs><title>Ресурс 1</title><g id="Слой_2" data-name="Слой 2"><g id="Layer_1" data-name="Layer 1"><path class="cls-2" d="M256.45,149.08a9.44,9.44,0,0,1-3.29-.82,10,10,0,0,1-5.93-9.1V67.39a10,10,0,0,1,10-10h40.5v91.68h-2l-39.14,0Z" transform="translate(-40.03)"/><rect x="402.94" y="188.05" width="0.98" height="0.01"/><path d="M307.47,157.4a338.78,338.78,0,0,1,131,41.52A12.59,12.59,0,0,0,451,198.8a12.35,12.35,0,0,0,6.15-10.75V139.18l1.74-.22a39,39,0,0,0,0-77.38l-1.74-.23V12.48a12.49,12.49,0,0,0-18.6-10.87A339,339,0,0,1,297.12,44.07c-.37,0-25,.14-45.53.23a20.09,20.09,0,0,0-20,17.72l-.21,1.77h-11a16.36,16.36,0,0,0-16.34,16.34v40.3a16.36,16.36,0,0,0,16.34,16.34h11l.21,1.76a20.21,20.21,0,0,0,11.85,16l.78.34,33.17,91.53a12.38,12.38,0,0,0,11.6,8.12h33A12.35,12.35,0,0,0,333.62,238l-29.33-80.91ZM457.11,71.47l2.39.48a28.88,28.88,0,0,1,0,56.64l-2.39.48ZM231.49,126.62H220.41a6.2,6.2,0,0,1-6.2-6.19V80.13a6.21,6.21,0,0,1,6.2-6.2h11.08Zm70.74-72.79,1.82-.17A348.9,348.9,0,0,0,443.46,10.47a2.31,2.31,0,0,1,2.36,0,2.26,2.26,0,0,1,1.15,2V188.05a2.27,2.27,0,0,1-1.14,2,2.48,2.48,0,0,1-1.21.33,2.3,2.3,0,0,1-1.17-.32,348.84,348.84,0,0,0-139.4-43.18l-1.82-.17Zm-51.38,92.25a9.44,9.44,0,0,1-3.29-.82,10,10,0,0,1-5.93-9.1V64.39a10,10,0,0,1,10-10h40.51v91.68h-2l-39.14,0Zm73.23,95.36a2.1,2.1,0,0,1-.26,2,2.15,2.15,0,0,1-1.81.94H289A2.21,2.21,0,0,1,287,243l-31.41-86.7h37.66Z" transform="translate(-40.03)"/><path class="cls-3" d="M297.69,20.53s21.56,1.6,50.76-10.68" transform="translate(-40.03)"/><g class="cls-4"><path d="M296.32,362.69a5.15,5.15,0,0,0,1.94-4V122.4a5.19,5.19,0,0,0-5.19-5.2H142.74a29.44,29.44,0,0,0-56.28,0H69.81a5.2,5.2,0,0,0-5.2,5.2V416.84a5.2,5.2,0,0,0,5.2,5.2h165a5.19,5.19,0,0,0,4.08-1.94Zm-56.25,41.56V363.84h40.41ZM114.6,106.81a19.08,19.08,0,0,1,17,10.39H97.63a19.16,19.16,0,0,1,17-10.39ZM75,127.59h58.65V164a8.66,8.66,0,0,1-17.32,0V143.18a5.2,5.2,0,1,0-10.39,0V164a19.05,19.05,0,1,0,38.1,0V127.59H287.87V353.45h-53a5.19,5.19,0,0,0-5.19,5.2v53H75Z" transform="translate(-40.03)"/><path d="M320.78,138.14h-6.93a5.2,5.2,0,0,0,0,10.39h1.73V411.64H260.11a5.2,5.2,0,0,0,0,10.4h60.67a5.2,5.2,0,0,0,5.2-5.2V143.33a5.2,5.2,0,0,0-5.2-5.19Z" transform="translate(-40.03)"/><path d="M348.49,138.14h-6.93a5.2,5.2,0,0,0,0,10.39h1.74V411.64h-1.74a5.2,5.2,0,0,0,0,10.4h6.93a5.2,5.2,0,0,0,5.2-5.2V143.33a5.2,5.2,0,0,0-5.2-5.19Z" transform="translate(-40.03)"/><line class="cls-3" x1="6" y1="363.94" x2="6" y2="394.36"/></g><path class="cls-5" d="M226.36,220.85c2,.74,2.49,2.27,2.48,4.28-.07,8.34,0,16.69,0,25v1.56c-.47,0-.83.06-1.18.06H201.37c-1.86,0-2.83-.64-3.23-2.08a2.62,2.62,0,0,1,1.91-3.36,9.78,9.78,0,0,1,2-.21h16.36l.19-.32c-1.36-1.43-2.66-2.93-4.11-4.27a44.74,44.74,0,0,0-70.3,12.09,42.55,42.55,0,0,0-4.93,18.7,15.91,15.91,0,0,1-.2,2.18,2.77,2.77,0,0,1-2.94,2.46,2.55,2.55,0,0,1-2.54-2.68,60.43,60.43,0,0,1,.71-8.83c3-15.81,11.52-27.8,25.58-35.53,12.15-6.68,25.11-7.94,38.45-4a49.57,49.57,0,0,1,23.94,15.56c.17.21.36.41.82.92V225.09c0-2.64.41-3.29,2.7-4.24Z" transform="translate(-40.03)"/><path class="cls-5" d="M144.8,306.37c0,5.88,0,11.71,0,17.54,0,1.7-.72,2.93-1.9,3.32-1.94.64-3.67-.64-3.78-2.86-.06-1.18,0-2.37,0-3.56V296.69c.5,0,.89-.08,1.29-.08h26.12c1.93,0,2.9.66,3.29,2.18A2.65,2.65,0,0,1,168,302a8.23,8.23,0,0,1-2.16.24q-7.46,0-14.91,0h-1.48l-.23.34c1.67,1.69,3.25,3.48,5,5.05a44.76,44.76,0,0,0,70.65-15.43,41.79,41.79,0,0,0,3.66-15.16c0-.87.1-1.73.18-2.59.2-2.06,1.37-3.2,3.09-3.05s2.54,1.43,2.51,3.45a47.81,47.81,0,0,1-1.86,12.92,49.73,49.73,0,0,1-21.73,29.07,49.18,49.18,0,0,1-31,7.58,48.62,48.62,0,0,1-27.84-11.38C149.47,311,147.24,308.68,144.8,306.37Z" transform="translate(-40.03)"/></g></g></svg>