<svg xmlns="http://www.w3.org/2000/svg" viewBox="0 0 360.39 296.05"><defs><style>.cls-1{fill:#ef371f;}.cls-2,.cls-3{stroke:#000;stroke-miterlimit:10;}.cls-2{stroke-width:2px;}.cls-3{fill:none;stroke-linecap:round;stroke-width:12px;}</style></defs><title>Ресурс 1</title><g id="Слой_2" data-name="Слой 2"><g id="Layer_1" data-name="Layer 1"><rect class="cls-1" x="52" y="23.76" width="299.5" height="22.5"/><path class="cls-2" d="M354.21,1H39.4a5.19,5.19,0,0,0-5.19,5.19V289.86a5.19,5.19,0,0,0,5.19,5.19H354.21a5.18,5.18,0,0,0,5.18-5.19V234.51a5.19,5.19,0,1,0-10.37,0v50.16H44.59V52.89H349V213.76a5.19,5.19,0,1,0,10.37,0V6.19A5.18,5.18,0,0,0,354.21,1ZM44.59,11.38h192V42.51h-192ZM247,42.51V11.38H349V42.51Z"/><path class="cls-2" d="M298.16,21.41A5.54,5.54,0,1,0,303.7,27a5.54,5.54,0,0,0-5.54-5.54Z"/><path class="cls-2" d="M269.79,21.41A5.54,5.54,0,1,0,275.33,27a5.54,5.54,0,0,0-5.54-5.54Z"/><path class="cls-2" d="M326.53,21.41A5.54,5.54,0,1,0,332.06,27a5.54,5.54,0,0,0-5.53-5.54Z"/><path class="cls-2" d="M139.11,140.88a5,5,0,0,0,4.16-3.53L154.78,99a5,5,0,1,0-9.58-2.87L137,123.62,129,110.35a5,5,0,0,0-8.58,0l-8,13.27-8.25-27.53A5,5,0,0,0,94.64,99l11.5,38.39a5,5,0,0,0,4.17,3.53l.62,0a5,5,0,0,0,4.29-2.43l9.49-15.83,9.49,15.83a5,5,0,0,0,4.91,2.4Z"/><path class="cls-2" d="M177.53,140.87c.21,0,.42,0,.62,0a5,5,0,0,0,4.29-2.43l9.49-15.84,9.48,15.84a5,5,0,0,0,9.08-1.14L222,99a5,5,0,0,0-9.58-2.87l-8.24,27.54-7.95-13.27a5,5,0,0,0-8.58,0l-7.95,13.27-8.25-27.53A5,5,0,1,0,161.86,99l11.5,38.38a5,5,0,0,0,4.17,3.53Z"/><path class="cls-2" d="M285.86,92.72a5,5,0,0,0-6.23,3.36l-8.25,27.53-7.95-13.27a5,5,0,0,0-8.58,0l-7.95,13.27-8.25-27.53A5,5,0,0,0,229.08,99l11.5,38.39a5,5,0,0,0,9.07,1.13l9.49-15.83,9.49,15.83a5,5,0,0,0,4.29,2.43l.62,0a5,5,0,0,0,4.16-3.53L289.21,99a5,5,0,0,0-3.35-6.23Z"/><path class="cls-2" d="M122.16,171.24a5.19,5.19,0,0,0-5.19-5.19H89.29a5.19,5.19,0,0,0-5.19,5.19v27.67a5.19,5.19,0,0,0,5.19,5.19H117a5.19,5.19,0,0,0,5.19-5.19Zm-10.38,22.48H94.48v-17.3h17.3Z"/><path class="cls-2" d="M117,214.48H89.29a5.19,5.19,0,0,0-5.19,5.19v27.67a5.19,5.19,0,0,0,5.19,5.19H117a5.19,5.19,0,0,0,5.19-5.19V219.67a5.19,5.19,0,0,0-5.19-5.19Zm-5.19,27.67H94.48V224.86h17.3Z"/><path class="cls-2" d="M287.93,179.88H267.18a5.19,5.19,0,0,0,0,10.38h20.75a5.19,5.19,0,0,0,0-10.38Z"/><path class="cls-2" d="M246.42,179.88H158.77a5.19,5.19,0,0,0,0,10.38h87.65a5.19,5.19,0,1,0,0-10.38Z"/><path class="cls-2" d="M287.93,228.32H267.18a5.19,5.19,0,1,0,0,10.37h20.75a5.19,5.19,0,1,0,0-10.37Z"/><path class="cls-2" d="M246.42,228.32H158.77a5.19,5.19,0,1,0,0,10.37h87.65a5.19,5.19,0,1,0,0-10.37Z"/><line class="cls-3" x1="6" y1="21.41" x2="6" y2="73.26"/><line class="cls-3" x1="6" y1="91.6" x2="6" y2="108.26"/></g></g></svg>