<svg xmlns="http://www.w3.org/2000/svg" viewBox="0 0 659.55 359.24">
    <defs>
        <style>
            .cls-1{
            fill:none;
            stroke:#fff;
            stroke-linecap:round;
            stroke-miterlimit:10;
            stroke-width:12px;}
            .cls-2{
            fill:#fff;
            }
        </style>
    </defs>
    <title>Ресурс 1</title>
    <g id="Слой_2" data-name="Слой 2">
        <g id="Layer_1" data-name="Layer 1">
            <line class="cls-1" x1="330.37" y1="230.75" x2="330.37" y2="351.64"/>
            <path class="cls-1" d="M445.64,6s17,3.56,23.85,6.85"/>
            <line class="cls-1" x1="6" y1="135.96" x2="6" y2="186.7"/>
            <path class="cls-2" d="M31.62,344H8.56a7.37,7.37,0,0,0,0,14.74H270l.58.17a7.31,7.31,0,0,0,2,.29H390.22a7.47,7.47,0,0,0,2-.29l.57-.17H652.18a7.37,7.37,0,1,0,0-14.74h-23V83a7.39,7.39,0,0,0-7.38-7.37H477.28V48.41a7.39,7.39,0,0,0-5-7,438.17,438.17,0,0,0-283.84,0,7.37,7.37,0,0,0-5,7V75.66H39A7.38,7.38,0,0,0,31.62,83Zm188.26-58.75H140V138.11h79.93Zm163,58.75H280V202.22H382.84Zm45.83,0H397.59V194.85a7.39,7.39,0,0,0-7.37-7.38H272.6a7.39,7.39,0,0,0-7.38,7.38V344H234.63V138.11h194Zm185.71,0h-171V300h171Zm-171-58.75V138.11h78.16V285.29Zm171,0h-78V138.11h78ZM198.22,53.69l3-.95a423.59,423.59,0,0,1,258.37,0l3,.95V87.16H198.22ZM46.37,90.4h137l.06,4.22a7.41,7.41,0,0,0,7.37,7.29H469.91a7.4,7.4,0,0,0,7.36-7.28l.05-4.23H614.38v33h-568Zm0,47.7h78.84V285.29H46.37Zm0,161.93H219.88v44H46.37Z"/>
            <line class="cls-1" x1="619.49" y1="153.39" x2="571.89" y2="188.52"/>
            <line class="cls-1" x1="571.89" y1="218.57" x2="585.86" y2="207.19"/>
            <line class="cls-1" x1="222.87" y1="197.92" x2="175.28" y2="233.06"/>
            <line class="cls-1" x1="175.28" y1="263.1" x2="189.25" y2="251.72"/>
        </g>
    </g>
</svg>