<svg xmlns="http://www.w3.org/2000/svg" viewBox="0 0 356.84 346.41">
    <defs>
        <style>.cls-1
            {fill:none;
            stroke:#fff;
            stroke-linecap:round;
            stroke-miterlimit:10;
            stroke-width:12px;}
            .cls-2{
            fill:#fff;
            }
        </style>
    </defs>
    <title>Ресурс 1</title>
    <g id="Слой_2" data-name="Слой 2">
        <g id="Layer_1" data-name="Layer 1">
            <path class="cls-2"  d="M292.21,284.74h13.91a6.53,6.53,0,1,0,0-13.05H292.21a6.53,6.53,0,1,0,0,13.05Z"/>
            <path class="cls-2"  d="M285,257.77h28.41a6.53,6.53,0,0,0,0-13H285a6.53,6.53,0,1,0,0,13Z"/>
            <path class="cls-2"  d="M186,333.36H133.34V146.17l1.23-.45a39.3,39.3,0,0,0,17.81-13.13l1.5-2,1.49,2A39.3,39.3,0,0,0,184.23,148l1.77.1,13.05-2,1.23-.46a39.31,39.31,0,0,0,17.57-13.06l1.5-2,1.5,2a39.21,39.21,0,0,0,62.49,0l1.5-2,1.5,2A39.25,39.25,0,0,0,331,145.71l2.53-.93v40.89a6.53,6.53,0,1,0,13.05,0V135.23l.47-.53a39.24,39.24,0,0,0,9.76-25.89V30.17a6.54,6.54,0,0,0-6.53-6.53H235.13l-.54-.53a50.66,50.66,0,0,0-7.18-5.75C216.43,10,202,6,186.63,6s-29.79,4-40.77,11.36a50,50,0,0,0-7.18,5.75l-.55.53H23a6.54,6.54,0,0,0-6.52,6.53v78.64a39.2,39.2,0,0,0,9.76,25.88l.47.54V333.36H23a6.53,6.53,0,0,0,0,13.05H350.31a6.53,6.53,0,1,0,0-13.05h-3.7V217.13a6.54,6.54,0,0,0-6.53-6.53H258.24a6.53,6.53,0,0,0-6.52,6.53V333.36H199.05m65.72-109.71h68.79v77.14H264.77Zm0,90.19h68.79v19.52H264.77ZM120.28,333.36H39.71V189h80.57Zm0-157.44H39.71V144.77l2.53.93a39.21,39.21,0,0,0,44.69-13.13l1.49-2,1.5,2A39.28,39.28,0,0,0,118.52,148l1.76.12Zm92.55-67.73c0,.21,0,.41,0,.62A26.21,26.21,0,0,1,160.41,110v-.15c0-.33,0-.66,0-1V84.92l2.43.74a83.65,83.65,0,0,0,47.55,0l2.43-.74Zm131,.62a26,26,0,0,1-7.72,18.57l-.14.12c-.22.19-.44.39-.67.63l-.11.12a26.2,26.2,0,0,1-43.78-19.44V71.48h52.42ZM244.52,39.1l-.69-2.41h100V58.42h-100l.69-2.4a30.67,30.67,0,0,0,0-16.92ZM234.59,72l.55-.52h43.18v37.33a26.21,26.21,0,1,1-52.42,0V78.73l.88-.56.61-.4A51.11,51.11,0,0,0,234.59,72ZM145.43,35l.15-.16a7.81,7.81,0,0,0,.75-.87l.13-.17c8.25-9.09,23.64-14.74,40.17-14.74s31.93,5.65,40.18,14.74l.13.17a6.86,6.86,0,0,0,.76.87l.14.16a19.81,19.81,0,0,1,4.81,12.57,20,20,0,0,1-4.81,12.56l-.15.16a7.1,7.1,0,0,0-.75.88l-.14.17A37.85,37.85,0,0,1,216.72,69l-.11.05c-.19.1-.39.2-.57.31l-.1.05c-8.32,4.3-18.73,6.66-29.31,6.66-16.52,0-31.92-5.65-40.17-14.74l-.13-.16a8.24,8.24,0,0,0-.75-.88l-.15-.16a20,20,0,0,1-4.82-12.56A19.77,19.77,0,0,1,145.43,35Zm-6.75,37a50.89,50.89,0,0,0,7.18,5.74c.22.16.43.29.63.42l.88.56v29.48c0,.2,0,.4,0,.6s0,.69,0,1V110A26.21,26.21,0,0,1,95,108.81V71.48h43.18ZM29.48,36.69h100l-.69,2.41a30.92,30.92,0,0,0,0,16.92l.69,2.4H29.48Zm0,34.79H81.9v37.33a26.2,26.2,0,0,1-43.77,19.45l-.13-.14a6.72,6.72,0,0,0-.67-.63l-.13-.12a26,26,0,0,1-7.72-18.56Z"/>
            <line class="cls-1" x1="6" y1="231.84" x2="6" y2="257.77"/>
            <line class="cls-1" x1="322.24" y1="6" x2="331.66" y2="6"/>
            <rect class="cls-1" x="126.25" y="180.95" width="94.45" height="92.33"/>
        </g>
    </g>
</svg>