<svg xmlns="http://www.w3.org/2000/svg" viewBox="0 0 225.24 132.07"><defs><style>.cls-1{fill:#fffbdc;}.cls-1,.cls-10,.cls-11,.cls-2,.cls-3,.cls-4,.cls-5,.cls-6,.cls-7,.cls-8,.cls-9{fill-rule:evenodd;}.cls-3{fill:none;stroke:#1d1d1b;stroke-miterlimit:22.93;stroke-width:0.44px;}.cls-4{fill:#fff;}.cls-5{fill:#1d1d1b;}.cls-6{fill:#e30613;}.cls-7{fill:#009640;}.cls-8{fill:#fc0;}.cls-9{fill:#d99e17;}.cls-10{fill:#ef7d00;}.cls-11{fill:#fff482;}</style></defs><title>Ресурс 1</title><g id="Слой_2" data-name="Слой 2"><g id="_1" data-name="1"><path class="cls-1" d="M119.36,100.34c0-.09-.3-.7,0-.74s.67-.24.59.22C119.73,101.2,119.43,100.78,119.36,100.34Z"/><path class="cls-2" d="M132.76,10.8c4.31,8.49,12.45,5.47,12.1,17.92-.22,8.11-8.59,8.77-12-.53L132,29.93a21.29,21.29,0,0,0-1.28,5.45l.8,3.88c.17.41-.13.2.82,0,1.57-.39,2.51.32,2.95,2,.33,1.25-.93,3.48-.31,4.38,1.46,2.1.1,3.45,4.09,3.23,2.23-.13.47-1.46,6-2,1.69-.16,5.27,2,5.78,2.6.79.94,6.93,3.21,10.72,6.64,2.8,3,6,6.43,4.14,15.88-.17.89-2.87,2.38-5.46,4.82s-11.76,9.69-13.69,11.11-3.07,2.67-2.87,2.71c.79.16,2.76-.47,3,1.26.17,1.3,1.32,0,2.91,1.22.31.23-.47,1.69-3.74,3.38a22.56,22.56,0,0,1-7.87,2.6,3.62,3.62,0,0,1-2.48-1.31c-.33-.42-.42-.27-1.25.36s-6.05,4.29-7.27,4.72-5,.51-6.67.71c-3.8.45-2-.83-3.32-5.7a15.69,15.69,0,0,0-1.57-3.15c-.43-.78-.94-.43-1.46.12s-4.63,2.2-7.54,2.59a58.24,58.24,0,0,1-8.5.27,5.62,5.62,0,0,1-4.58-2c-1.62-1.48-9.26-1.82-10.87-4.17C82,90.77,79.34,89.12,78,88s-5.29-1.53-5.52-1.66S71.4,87.57,71,88.11c-.65,1-1.44-.56-1.5-.62-.42-.43-6.38,5.14-5,3.14.17-.24,1.77-1.85,1.92-2.08.28-.45-4.2,1.64-6-.14a8.64,8.64,0,0,1-1.52-4.16c0-1.26,2.8.25,6.25.43,1.07.06,3.76,0,3.76,0-2.23-1-4.46-1.88-6.3-4.39-.74-1-.92-1.3-1.17-3.36-.35-2.8,4.82-6,8.49-2.61-.4-.79-.19-6.18,0-7.61s2-4,4.16-6,3.42-2.36,6-3.19c-.5-.37-1-.77-1.43-1.15a1.76,1.76,0,0,1-1.23-1c-.51-1.2.84-.86,1.34-.63,1.81,1,4.25-1,6.06-1.59-.49-.72-1.45-1-.22-4.94.2-.63-.39-6.43,2.67.25.07.15.14.29.22.43,0-.11,0-.21.07-.31A12.53,12.53,0,0,1,89.7,45c.41-.37-1.54-.8-1.43-4.39,0-.65,1.43-2.06,2.16-2.63a3.24,3.24,0,0,1,2.2-.4c.37,0,.49-.37.78-.88C93.9,35.89,94.47,35,95,34.2c-4.27-.85-7.93-2-7.77-7.84a4.89,4.89,0,0,1,1.49-3.65c-3.89-7.06-1.27-17.1,6.91-16.84a6.69,6.69,0,0,1,3.26,1.22c.18-.66.34-1.2.34-1.21C101.76-1.86,114.2-.81,116.74,4,122.71,2.36,129.78,4.94,132.76,10.8Z"/><path class="cls-3" d="M132.76,10.8c4.31,8.49,12.45,5.47,12.1,17.92-.22,8.11-8.59,8.77-12-.53L132,29.93a21.29,21.29,0,0,0-1.28,5.45l.8,3.88c.17.41-.13.2.82,0,1.57-.39,2.51.32,2.95,2,.33,1.25-.93,3.48-.31,4.38,1.46,2.1.1,3.45,4.09,3.23,2.23-.13.47-1.46,6-2,1.69-.16,5.27,2,5.78,2.6.79.94,6.93,3.21,10.72,6.64,2.8,3,6,6.43,4.14,15.88-.17.89-2.87,2.38-5.46,4.82s-11.76,9.69-13.69,11.11-3.07,2.67-2.87,2.71c.79.16,2.76-.47,3,1.26.17,1.3,1.32,0,2.91,1.22.31.23-.47,1.69-3.74,3.38a22.56,22.56,0,0,1-7.87,2.6,3.62,3.62,0,0,1-2.48-1.31c-.33-.42-.42-.27-1.25.36s-6.05,4.29-7.27,4.72-5,.51-6.67.71c-3.8.45-2-.83-3.32-5.7a15.69,15.69,0,0,0-1.57-3.15c-.43-.78-.94-.43-1.46.12s-4.63,2.2-7.54,2.59a58.24,58.24,0,0,1-8.5.27,5.62,5.62,0,0,1-4.58-2c-1.62-1.48-9.26-1.82-10.87-4.17C82,90.77,79.34,89.12,78,88s-5.29-1.53-5.52-1.66S71.4,87.57,71,88.11c-.65,1-1.44-.56-1.5-.62-.42-.43-6.38,5.14-5,3.14.17-.24,1.77-1.85,1.92-2.08.28-.45-4.2,1.64-6-.14a8.64,8.64,0,0,1-1.52-4.16c0-1.26,2.8.25,6.25.43,1.07.06,3.76,0,3.76,0-2.23-1-4.46-1.88-6.3-4.39-.74-1-.92-1.3-1.17-3.36-.35-2.8,4.82-6,8.49-2.61-.4-.79-.19-6.18,0-7.61s2-4,4.16-6,3.42-2.36,6-3.19c-.5-.37-1-.77-1.43-1.15a1.76,1.76,0,0,1-1.23-1c-.51-1.2.84-.86,1.34-.63,1.81,1,4.25-1,6.06-1.59-.49-.72-1.45-1-.22-4.94.2-.63-.39-6.43,2.67.25.07.15.14.29.22.43,0-.11,0-.21.07-.31A12.53,12.53,0,0,1,89.7,45c.41-.37-1.54-.8-1.43-4.39,0-.65,1.43-2.06,2.16-2.63a3.24,3.24,0,0,1,2.2-.4c.37,0,.49-.37.78-.88C93.9,35.89,94.47,35,95,34.2c-4.27-.85-7.93-2-7.77-7.84a4.89,4.89,0,0,1,1.49-3.65c-3.89-7.06-1.27-17.1,6.91-16.84a6.69,6.69,0,0,1,3.26,1.22c.18-.66.34-1.2.34-1.21C101.76-1.86,114.2-.81,116.74,4,122.71,2.36,129.78,4.94,132.76,10.8Z"/><path class="cls-2" d="M131.55,39.26s-1.93-9.16-2.2-11.4-1.91-8.7-.82-11.09c1.7-3.72-5.16-7.83-9.65-7.49-3.65.27-4.26,2-4.81,1.6s-4.42-5.78-6.35-3.43L96.36,21.22l1.7,6.92c-.21,2.68-3,5.66-4.65,8.59-.29.51-.41.9-.78.88a3.24,3.24,0,0,0-2.2.4c-.73.56-2.14,2-2.16,2.63-.11,3.59,1.84,4,1.43,4.39a12.53,12.53,0,0,0-2.12,3.46c-.7,2.81-.2,5.73.1,8.14a20.83,20.83,0,0,0-7.42.79c-2.69.86-4,1.18-6.16,3.24s-4,4.59-4.16,6-.37,6.82,0,7.61c-3.67-3.34-8.84-.19-8.49,2.61.25,2.06.43,2.34,1.17,3.36,1.84,2.51,4.07,3.35,6.3,4.39,0,0-2.68.1-3.76,0C61.74,84.5,59,83,58.94,84.25a8.64,8.64,0,0,0,1.52,4.16c1.77,1.78,6.25-.31,6,.14-.15.23-1.75,1.84-1.92,2.08-1.36,2,4.6-3.57,5-3.14.06.06.85,1.58,1.5.62.37-.54,1.25-1.87,1.49-1.75S76.74,86.91,78,88s4,2.75,4.48,3.5c1.61,2.35,9.26,2.69,10.87,4.17a5.62,5.62,0,0,0,4.58,2,58.24,58.24,0,0,0,8.5-.27c2.91-.39,7-2,7.55-2.59s1-.9,1.45-.12A15.69,15.69,0,0,1,117,97.85c1.27,4.87-.48,6.15,3.32,5.7,1.65-.2,5.45-.28,6.67-.71s6.45-4.09,7.27-4.72.92-.78,1.25-.36A3.62,3.62,0,0,0,138,99.07a22.56,22.56,0,0,0,7.87-2.6c3.27-1.69,4-3.15,3.74-3.38-1.59-1.19-2.74.08-2.91-1.22-.23-1.73-2.2-1.1-3-1.26-.2,0,.94-1.3,2.87-2.71s11.09-8.67,13.69-11.11,5.29-3.93,5.46-4.82c1.82-9.45-1.34-12.9-4.14-15.88-3.79-3.43-9.93-5.7-10.72-6.64-.51-.61-4.09-2.76-5.78-2.6-5.55.51-3.79,1.84-6,2-4,.22-2.63-1.12-4.09-3.23-.62-.9.64-3.13.31-4.38-.44-1.67-1.38-2.38-2.95-2C131.42,39.46,131.72,39.67,131.55,39.26Z"/><path class="cls-4" d="M99.5,35.64c-.11,0-2.24.36-2.73,1a4.57,4.57,0,0,0-.87,2.89c.22.69,2,1.23,2.55,1.57s.91.94.61.8a12,12,0,0,0-4.14-.29c-1.57.23-2.7,1.52-4.15,3.13s-1.08,4.23-.85,7.33.91,3.62,2.32,5.27a41.77,41.77,0,0,0,5.63,5.3c2.2,1.73,5.75,4.51,7.95,5.14s5.62,1.57,6.17,1a43,43,0,0,0,3.5-5.5c.72-1.61.24-1.92-.23-2.67a18,18,0,0,1,2.86-2.06c2.11-.54,1.39,1.37,4-2.34.13-.19,1.75-2.52,1-2.13-1.35.67-2.94-.45-5.11,2.67-2.06,3-5.79,4.62-9.57,2.27-1.47-.91-2.94-3.69-4-4.34-2.55-1.56-4.4.8-6.93-2.79-.48-.68-.91-2.09-.68-2s.38.73.93,1.16c2.24,1.75,5.48,1.57,8.62.87.4-.09,2-.33,2-1.34a2,2,0,0,0-.95-1.5c-.49-.25-.41-1-.27-1.53.27-1,.47-1.5.47-.58a1.59,1.59,0,0,0,2.65,1.45c1.36-2.21.65-.7,1.93.53.81.79,3.07.17,3.63-.87.41-.75.3-2-.72-3.33,1.48.59,1.71,2.21,1.67,3.49,0,.75,1.78,1.16,2.22-.27.36-1.15,0-2.35.5-1.65a3.07,3.07,0,0,1,.56,2.49c-.08.48-1.18,1.12-1.3,1.52-.46,1.55,3.75,2.11,5,2.31a6,6,0,0,0,3.39-.51,3.57,3.57,0,0,1-2.25,1.34c.38.45,1.54,1.42,1.74,1.34a10.44,10.44,0,0,0,2.51-.57,5.94,5.94,0,0,0,.4-1.84c.11-.34.23-.69.35-1,.63-1.85,1.36-3.56,2.31-3a9.92,9.92,0,0,0,1.37.79c2.35.7-.35-5.8-4.73-5.72-3.4.07-4.09.2-3-.39,2.79-1.5,3.62-.66,6.1-1.33,1.22-.33.46,1,.71,1.69.44,1.12,1.79-.1,1.59-1.93-.32-2.93-2.6-2.32-2.93-2-2.43,2.1-3,3.55-3.65-.29S125.9,35,125.14,34.9a1.43,1.43,0,0,1-.82.61c-.79.27-3.15-.25-4.56-.88-1.15-.52-1.09-1.21-1.31-1.26a39.64,39.64,0,0,0-4.93,0,32.25,32.25,0,0,0-5.17.43c.08,1.29-6.87,2.57-7.57,1.13Z"/><path class="cls-4" d="M90.44,40.64c.28.52,1.34,1.75.75,2.59a1.64,1.64,0,0,1-2-.12c-1.45-2,.74-5.2,2.14-5.12,2.8.15,3.55,2.22,3.33,2.7-.93,2.05-2.32-.15-3.1-.45C90.2,39.75,90.44,40.45,90.44,40.64Z"/><path class="cls-5" d="M102.34,40.85c-.73-2.47,3.41-3.76,4.39-3.65,3.12.33,3.94,3.26,2.42,3.65C108.47,41,102.61,41.57,102.34,40.85Z"/><path class="cls-5" d="M117.17,40.68c-.66-2.77,3.66-3.12,5-2.7,3,.91,3.25,3.14,1.67,3.84C123.23,42.11,117.36,41.74,117.17,40.68Z"/><path class="cls-4" d="M108.16,39.83c-1.45-.72.37-2,.59-.84C108.86,39.57,108.83,40,108.16,39.83Z"/><path class="cls-4" d="M123.62,40.63a.7.7,0,0,0-.36-.9.69.69,0,0,0-.81.52.7.7,0,0,0,.36.9A.69.69,0,0,0,123.62,40.63Z"/><path class="cls-5" d="M115.55,38.24c.34-2.49,2.15-3.73,1.34-1.41-.6,1.7-.81,1.06-.84,3.22,0,.18,0,1.13,0,1.19C115.84,41.63,115.43,39.09,115.55,38.24Z"/><path class="cls-4" d="M107.22,53.93c.16-.12,1.46-1.36,2-1.83s1.31-.57,1,0a4.5,4.5,0,0,1-1.36,1.57c-.59.37-1.57.79-1.73.67s-.19-.11-.07-.24Z"/><path class="cls-4" d="M109,54.93c.66,0,1.7,1,3.32.37,5.48-2.24,3.32,2.39-.51,1.51-1.53-.35-3.58-1.27-3.06-1.78A.45.45,0,0,1,109,54.93Z"/><path class="cls-4" d="M107.5,55.59c3.24,2.23,4.56,3.31,9.19.63.6-.35,1-.08,1,.2a5.73,5.73,0,0,1-2.54,2.19C109.08,60.6,105.78,54.72,107.5,55.59Z"/><path class="cls-5" d="M107.32,63.5c0-1.32,0-1.56,1.67.73a2.77,2.77,0,0,0,3.67.73,8.68,8.68,0,0,1,2.06-1c1.62-.07-1.28,1.92-2.33,2C109.82,66.24,108.26,65.56,107.32,63.5Z"/><path class="cls-4" d="M111.51,70.4s-2.55,1.14-4.17.63a14.09,14.09,0,0,1-4.48-2.2c-1.06-.91-2.24-1.93-1-1.53a52.13,52.13,0,0,0,5.46,1.8c1.42.24,3.62.65,3.88.71s.71.33.58.43A1.28,1.28,0,0,1,111.51,70.4Z"/><path class="cls-4" d="M99.8,66.82s3.1,3.7,4.79,4.33c3.15,1.17,6.43,1.32,5.51,2-1.95,1.37-8.61-2-11-5.44C97,64.59,98.07,64.94,99.8,66.82Z"/><path class="cls-4" d="M99.23,70.45c.08,2.07,1.75,3.86,4.68,3.93,5,.12,4.53.46.55-1.55a23.13,23.13,0,0,1-3.81-2.14C99.83,69.87,99.29,69.52,99.23,70.45Z"/><path class="cls-6" d="M110.57,76.58c-3.55,1.83-9.28-.45-10.89-2-1.17-1.1-1-10.73-8.85-15.37-2.12-1.26-4-2.29-6-2.09a20.59,20.59,0,0,0-6.44,1.53c-5.38,2.76,1.26-.25,4.1.39,4.47,1,9.6,4.29,9.19,9.52-.07.85-.87,4,0,2.41,2.13-4-.05,3,.7,3.49,4.16,2.91,2.74,6.61,4.33,6.61,4,0,6.66-.9,12.27.31,3.24.7,2.52,1.68,2.52-4.36C111.44,76,111.6,76.09,110.57,76.58Z"/><path class="cls-6" d="M74.4,78.74c.21-.21,2.16-4.59,2.16-2.2,0,.27.2-.28,1.08-1,0,0,5.35-2.86,5.64-3,3.72-1.4,6.66.65,6.88-2.7.12-1.77-.23-5.66-3-7.51-4.7-3.11-7.59-3.5-11.71-.82-1.52,1-5,3.92-3.14,3.06,3.53-1.63.23.72-.64,2.36-1.73,3.24.69-.12,2-.55,1.5-.5-.8,1.24-1.55,2.47-1.85,3,2.83-1.59,1.27.61-2.3,3.25-2.58,4.74-2.1,4.16.2-.24,1.38-1.47,1.69-1.82,1.25-1.41-.75,2.79-.82,3-.65,2.31.28.16,1.21-.83,1.71-1.8-.38,2.23-.49,3-.25,1.66.26.18,1.26-1.4,1.63-2.55-.37,2.61,0,3.32C74.18,79.15,74.12,79.23,74.4,78.74Z"/><path class="cls-7" d="M75.54,81.93s-1.17-.57-.94-1.15A21.71,21.71,0,0,1,79.41,76a22.26,22.26,0,0,1,6.3-2.75c5.27-.73,5.6.84,4.14,1.14A22.08,22.08,0,0,0,84,75.91a36.17,36.17,0,0,0-5.83,3.59C76.37,81.1,75.94,82,75.54,81.93Z"/><path class="cls-6" d="M69.67,75.18c-3.73-4.67-8.42.25-7.47,3.36.74,2.43,4.92,5.38,7.73,5.44,3.07.06,4.42-1,2.73-1a9.54,9.54,0,0,1-4.73-.7C66,81.37,64,80,63.82,78.66c-1-6.32,6.31-2.63,6-3.2A1.47,1.47,0,0,1,69.67,75.18Z"/><path class="cls-4" d="M73.62,80.52c-.62-1.45-1.88-1-2.41-2-2.77-4.83-8.58-2.83-6.13.69C66.38,81.09,74.09,84.28,73.62,80.52Z"/><path class="cls-6" d="M61.45,88.67a8,8,0,0,1-1.47-3c-.06-1.14-.34-1.18,2.08-.87a46.64,46.64,0,0,0,9.46,0c2.21-.31,4-.7,3.94-.43s-.16.47-1.5.87a51,51,0,0,1-5.62,2A40,40,0,0,0,63,88.59C61.71,89.25,61.74,89,61.45,88.67Z"/><path class="cls-6" d="M116.74,4c6-1.59,13,1,16,6.85,4.31,8.49,12.45,5.47,12.1,17.92-.22,8.11-8.59,8.77-12-.53L132,29.93a23.58,23.58,0,0,0-1.34,5.8l.1.1-.13.06c-.07.34-.14.54-.24.52-.64-.16-3.31-4.81-13.61-6.11-14-1.76-17.57,2.79-19.24,4.34-1.2,1.1-1.64.66-1.79-.29-4.58-.88-8.68-1.85-8.51-8a4.89,4.89,0,0,1,1.49-3.65c-3.89-7.06-1.27-17.1,6.91-16.84a6.69,6.69,0,0,1,3.26,1.22c.18-.66.34-1.2.34-1.21C101.76-1.86,114.2-.81,116.74,4Z"/><path class="cls-3" d="M116.74,4c6-1.59,13,1,16,6.85,4.31,8.49,12.45,5.47,12.1,17.92-.22,8.11-8.59,8.77-12-.53L132,29.93a23.58,23.58,0,0,0-1.34,5.8l.1.1-.13.06c-.07.34-.14.54-.24.52-.64-.16-3.31-4.81-13.61-6.11-14-1.76-17.57,2.79-19.24,4.34-1.2,1.1-1.64.66-1.79-.29-4.58-.88-8.68-1.85-8.51-8a4.89,4.89,0,0,1,1.49-3.65c-3.89-7.06-1.27-17.1,6.91-16.84a6.69,6.69,0,0,1,3.26,1.22c.18-.66.34-1.2.34-1.21C101.76-1.86,114.2-.81,116.74,4Z"/><path class="cls-4" d="M76.6,82.51S82.06,78,84,77.13s5.78-2,6.68-1.77a3.57,3.57,0,0,1,2.26,1.32,27.5,27.5,0,0,1,1.87,3.55c1.59,4,.82,1.39,6.14,1.3,15-.27,11.16,6.38,17.85-1.89,1.08-1.34,1.55-1.89,1.92-1.65s.53.35.37,1.06c-1.11,5-4.89,3.65,6.63,4a23.49,23.49,0,0,1,7.71,1.69c2.69,1.35,2.43,2.16-1.58,1.38-1.68-.33-3.12-.33-4.48-.62-1.16-.26-2.27.23-1.94.41.72.38,14,2.78,12.76,4.1-.81.89-9.67-1.37-11.13-.82-.63.23-1.38.86-.67.94s3.62.94,5,1.18,4.37,1.61,4.25,2c-.36,1.33-6.67-1.13-9.51-1-1,0-.95,0-.52.63a25.7,25.7,0,0,0,3.31,2.87c.62.46,1.92,3.45-1.93.79s-11.58-3.65-13.33-4.52c-.86-.44-1.06-.28-1.57.07a22.29,22.29,0,0,1-7,3.58c-3.42.87-8,1.26-10.3.36a36.16,36.16,0,0,1-5-2.56c-.74-.41-8-1.4-12.23-6.49C76.85,83.86,75.71,83.13,76.6,82.51Z"/><path class="cls-8" d="M113.4,82.71a71.89,71.89,0,0,1,0-8.93c.5-3.44,5-10.89,6.07-10.37s2.27,1.53,1.06,1.86c-.65.18-1-.16-1.08.35-.15,2-1.43,2.31-1.51,3-.13,1.17-2.41,1.32.45,2.14.42.11.73.11.67.82-.2,2.44-2.24-.26-1.41,3.71.23,1.14.59,1.57-.12,2.16s-1.46.63-1.18,1.3,1,.74.55,1.37a7,7,0,0,1-1.53,2.09c-1.19.81-1.32.7-1.88.66Z"/><path class="cls-4" d="M106.47,51.57c.08-.07.81-.76,1.13-1s.73-.32.57,0a2.54,2.54,0,0,1-.76.88,2.12,2.12,0,0,1-1,.38c-.08-.07-.11-.06,0-.14Z"/><path class="cls-7" d="M130.26,36.32l0,.18c.67,2-1.16,2.11-1.68,2.55-.05-.08-.68-2-.74-2.14-.58-1-1.31-2.38-2.62-2.53.38-1.53-5.94-3.59-6.67-1.61h-.36c-1.09,0-2.93,0-4,0-2.21.05-3.86.29-5.89.41a1.26,1.26,0,0,0-1.23-1,19.11,19.11,0,0,0-5.51.93,1.71,1.71,0,0,0-.88,1.32c-1,.75-3.44,1-4,1.58-.2,0-.07-.47,0-.61s.42-1.26.22-1.37c.23.58-.28,1.5.68.61,1.67-1.55,5.28-6.1,19.24-4.34C126.41,31.51,129.38,35.63,130.26,36.32Z"/><path class="cls-7" d="M112.06,70.28s-2.94,1.31-4.72.75a12.78,12.78,0,0,1-4.51-2.23c-1.17-1-2.8-2.38-1.45-2a56.06,56.06,0,0,0,6,2c1.57.27,4,.72,4.28.78s.78.37.64.48A2.11,2.11,0,0,1,112.06,70.28Z"/><path class="cls-7" d="M92.89,59c1.09.77,3.83,4.28,7.07,7.82a21,21,0,0,0,4.24,3.8c3.82,1.43,7.06,2,5.94,2.77-1.31.92-7.19-1-10.74-5.24-2-2.36-4.88-7.2-7-8.47C89.21,57.78,90.36,57.19,92.89,59Z"/><path class="cls-7" d="M99.2,70.4c.08,2.29,1.93,4.26,5.16,4.34,5.58.13,5,.51.61-1.72a25.66,25.66,0,0,1-4.21-2.36C99.86,69.76,99.26,69.37,99.2,70.4Z"/><path class="cls-7" d="M86,53.92c0-1.22-2.1-2.45-.85-5.07a3.54,3.54,0,0,0,.25-2.14c-.38-1.89.42.25.66.51.8.89.78,1.83,1.78,2.77.58.54,1.76,1.83,1.22,2.57-.08.12-.18.19-.36.43C88.62,53.05,86,53.85,86,53.92Z"/><path class="cls-7" d="M89.2,53.49s-2.08-.63-2.77.51a2,2,0,0,0,.63,2.92c.19.14,2.18.54,2.57.1.75-.86,1.27-1.69.72-2.93C90.26,53.86,89.67,53.81,89.2,53.49Z"/><path class="cls-7" d="M86.9,56.7c0-.09-.9-2.72-.94-2.78-.18-.24-.5-.16-1.28.18a34.56,34.56,0,0,0-3.75,1.43,2.27,2.27,0,0,1-2.15-.05A3,3,0,0,0,78,55c0-.35,1.57,1.7,2,2,1,.66,1.15,1.06,2.63,1.26s2.93.35,4-.94c.34-.4.16-.3.39-.75Z"/><path class="cls-2" d="M89.34,54.36c-4-.58-3.11,2.22-.07,2.29h0s0,0,0,0c.86-1,1.16-1.25.86-2.48h0a.78.78,0,0,0-.24-.17.82.82,0,0,1-.54.32Zm.71-.66c2,.83.38,3.44-.25,3.84C86,60,82.35,52,89,52.56l0,.07a.86.86,0,0,1,1,.72A.82.82,0,0,1,90.05,53.7Z"/><path class="cls-2" d="M85.08,53.9c0-1.68-2-.73-.46-5.78.2-.63-.39-6.43,2.67.25,1,2.12,3.43,3.24,1.23,4.81.45-1.14.77-1.13-.49-2.42a13,13,0,0,1-2-2.49c0,.07,0,.14-.05.22-1.14,4.65.56,2.4.85,5.45a.88.88,0,1,1-1.76,0Zm-.21-7.51h0Z"/><path class="cls-7" d="M86,53.92c0-1.22-2.1-2.45-.85-5.07a3.54,3.54,0,0,0,.25-2.14c-.38-1.89.42.25.66.51.8.89.78,1.83,1.78,2.77.58.54,1.76,1.83,1.22,2.57-.08.12-.18.19-.36.43C88.62,53.05,86,53.85,86,53.92Z"/><path class="cls-2" d="M85.41,54.73a25.44,25.44,0,0,1-5.11,1.64c3.78,3.55,6.49.6,6.85.24-.12.11-.06.08-.25.09l.07-.12c.09,0,0,0,.18,0l0,0,0,0h0A1.91,1.91,0,0,1,86.44,58c-2.64,2.47-5.6.21-7.77-1.63a1.77,1.77,0,0,1-1.23-1c-.18-.41,0-1.13.74-.87l0,0,.62.28c2.69,1.53,6.81-3.8,8.12-.78A.88.88,0,0,1,86.34,55,.85.85,0,0,1,85.41,54.73Z"/><path class="cls-7" d="M89.2,53.49s-2.08-.63-2.77.51a2,2,0,0,0,.63,2.92c.19.14,2.18.54,2.57.1.75-.86,1.27-1.69.72-2.93C90.26,53.86,89.67,53.81,89.2,53.49Z"/><path class="cls-7" d="M86.9,56.7c0-.09-.9-2.72-.94-2.78-.18-.24-.5-.16-1.28.18a34.56,34.56,0,0,0-3.75,1.43,2.27,2.27,0,0,1-2.15-.05A3,3,0,0,0,78,55c0-.35,1.57,1.7,2,2,1,.66,1.15,1.06,2.63,1.26s2.93.35,4-.94c.34-.4.16-.3.39-.75Z"/><path class="cls-2" d="M89.34,54.36c-4-.58-3.11,2.22-.07,2.29h0s0,0,0,0c.86-1,1.16-1.25.86-2.48h0a.78.78,0,0,0-.24-.17.82.82,0,0,1-.54.32Zm.71-.66c2,.83.38,3.44-.25,3.84C86,60,82.35,52,89,52.56l0,.07a.86.86,0,0,1,1,.72A.82.82,0,0,1,90.05,53.7Z"/><path class="cls-2" d="M85.41,54.73a25.44,25.44,0,0,1-5.11,1.64c3.78,3.55,6.49.6,6.85.24-.12.11-.06.08-.25.09l.07-.12c.09,0,0,0,.18,0l0,0,0,0h0A1.91,1.91,0,0,1,86.44,58c-2.64,2.47-5.6.21-7.77-1.63a1.77,1.77,0,0,1-1.23-1c-.18-.41,0-1.13.74-.87l0,0,.62.28c2.69,1.53,6.81-3.8,8.12-.78A.88.88,0,0,1,86.34,55,.85.85,0,0,1,85.41,54.73Z"/><path class="cls-4" d="M136.45,96.73c3.67-3.66,6.88-4.1,6.16-3.16-.23.31-4.53,3.47.16,1.34,2.16-1,2.49-1.32,3.83-1.61,8.73-1.93-6.46,6.88-9.48,5.12C136.3,97.94,135.76,97.33,136.45,96.73Z"/><path class="cls-8" d="M138.32,93.12c-2.68-2-3.73-1.77-7-2.63-4.73-1.22,3.6-.49,5.18-.1,5.24,1.31,6.44-.64,2.75-2.19-1-.42-1.53-.57-1.28-.75,2.43-1.68-3.95-5.15-10-5.33-2.41-.08-4.08,0-5.08,0-.6,0-1-.14-1.1-.38a2.33,2.33,0,0,1-.32-1.06c-.15-3.87.94-13.72,4.39-18.51,18.72-26,39.58-4,39.58,4,0,3.94.47,4.61-3.38,7.91-1.44,1.23-22.68,18.45-22.69,18.46C138.62,93.46,138.67,93.29,138.32,93.12Z"/><path class="cls-9" d="M138.32,93.12c-2.68-2-3.73-1.77-7-2.63-4.73-1.22,3.6-.49,5.18-.1,5.24,1.31,6.44-.64,2.75-2.19-1-.42-1.53-.57-1.28-.75,2.43-1.68-3.95-5.15-10-5.33-1.71-.05-3,0-4,0l0-.13s-1.34-6.84-.39-10.78c2.07-8.65,13.69-17.77,14.48-14.4a2.25,2.25,0,0,0,1.55,1.69c.91.57-2.16,3.56,2.47,6.56,1.34.87,1.85.91,1.22,2.44s-1.65,2.44-.39,2.75c5.81,1.46,7.47,4.53,8.85,3.23,1.89-1.79,5,1.46,6.72-.24,2.15-2.15,2.63-.41,5.11-2.55a2.84,2.84,0,0,1,1.68-.38c-.36,1.07-1.21,2.07-3.13,3.72-1.44,1.23-22.68,18.45-22.69,18.46C138.62,93.46,138.67,93.29,138.32,93.12Z"/><path class="cls-10" d="M117.55,79.33c-.42-.72.94-1.61.94-2.36a2.65,2.65,0,0,0-.27-1.36c-.32-.88-.46-2.1.19-2.21,1.81-.33.36-1.54,1.79-3.06,1.64-1.77.5-.9.74,3.45.08,1.41.28,2.61-.6,3s-.73.34-1.24,1.08a6.29,6.29,0,0,1-1.39,1.58C117.65,79.43,117.55,79.33,117.55,79.33Z"/><path class="cls-7" d="M117.33,69.86a7.82,7.82,0,0,0,2.14-2.45c.71-1.41,1.08-1.87,1.91-2.3s2.06-.92,1.82-.47a9.58,9.58,0,0,0-1.37,2.3c-.41,1.22-.69,2.18-1.53,2.59a8.93,8.93,0,0,1-3.12.54c-.15-.07-.17-.08,0-.14Z"/><path class="cls-7" d="M119.67,62.68a14.38,14.38,0,0,0-1.69-1.3c-.63-.35-1.61-.45-.57-.84s1.47-1,2.81-1.22A3.22,3.22,0,0,0,122.61,58a8.22,8.22,0,0,0,1.61-2.38c.39-1.12.22-2.1.71-2.2s.67.44,1.29,1,.91,1.08,2,.85,2.51-.24,2.25.18-1.33,1.57-1.68,2.13-.16,1.2-1.28,1.24a35.88,35.88,0,0,0-4.49.2,5.69,5.69,0,0,0-1.93,1.65,3.59,3.59,0,0,0-.94,1.66c0,.3.07.75-.08.64Z"/><path class="cls-7" d="M131.33,55.28c-.14,0-.77.31-.59-1s.94-4.06,1.55-4.57c1.18-1,1.91,1.4,2.92.39,1.89-1.89,2.91-.64,4.48-.55,3.18.18-3.48,1.88-7.81,5.43A4.33,4.33,0,0,1,131.33,55.28Z"/><path class="cls-7" d="M149.86,49a6.61,6.61,0,0,0-2-1.37c-1-.4-2-.52-1.79-.71a8.82,8.82,0,0,1,1.57-1.32c.45-.21.49-.19,1.26.83a7.66,7.66,0,0,1,1.29,2.25c0,.32.11.49,0,.44A3,3,0,0,0,149.86,49Z"/><path class="cls-6" d="M123.31,64.47c-5-.57-2-4.9.31-5.19,6.45-.81,3.19-.39.78,3.48C123.75,63.8,123.6,64.46,123.31,64.47Z"/><path class="cls-3" d="M123.31,64.47c-5-.57-2-4.9.31-5.19,6.45-.81,3.19-.39.78,3.48C123.75,63.8,123.6,64.46,123.31,64.47Z"/><path class="cls-6" d="M140.12,49c1.88-1.53,3.49-2.84,6.68-1.47,7.43,3.18.46,1.86-3.79,1.92C141.8,49.45,139.56,49.46,140.12,49Z"/><path class="cls-3" d="M140.12,49c1.88-1.53,3.49-2.84,6.68-1.47,7.43,3.18.46,1.86-3.79,1.92C141.8,49.45,139.56,49.46,140.12,49Z"/><path class="cls-1" d="M123.81,61.54a1.24,1.24,0,0,1-.22,1.12c-.25.35-.76.63-.8.18a1.52,1.52,0,0,1,.33-1.08c.22-.3.39-.36.48-.34A.56.56,0,0,1,123.81,61.54Z"/><path class="cls-1" d="M122.2,61.31c.29-.26.45-1.12,1.12-1.14s1.41.13,1.22-.1-.4-.32-1-.3a2.06,2.06,0,0,0-1.49,1.2c-.33.63-.33,1.12-.09.73Z"/><path class="cls-1" d="M123.3,57.93c.16-.12,1.31-.79,1.47-1.39s0-1.13.22-1.36.31-.39.31.47.38.77-.29,1.43a4.82,4.82,0,0,1-1.71,1.15c-.11,0-.2-.07-.16-.13A.91.91,0,0,1,123.3,57.93Z"/><path class="cls-1" d="M143.28,48.9c-.23-.22-1-.2-.86-.63s-.12-.69.55-.43C144.89,48.57,143.49,48.92,143.28,48.9Z"/><path class="cls-11" d="M115.33,81.25c0-.55-.28-6.56.31-8.17s.59-1.73.43-2.76c-.34-2.25,3.46-6.52,3.82-6.31s.78.29.76.61.11.58-.43.64-.92-.15-1,.18.44.4-.23,1.5a10.6,10.6,0,0,1-1.71,2.49c-.45.3-.82.16-.49.59s3.11.7,2,2.06c-.86,1-1.76.64-1.19,3.28.23,1.1.53,1.37.11,1.9s-1.39.49-1.23,1.18.82,1.3.39,1.81C116,81.31,115.55,82.19,115.33,81.25Z"/><path class="cls-9" d="M139.23,54.75s1.14-.47,2.32-1,2.34-1.49.79-.9-4,1.51-3.87,1.84a.35.35,0,0,0,.45.22Z"/><path class="cls-9" d="M147.06,52.32c2,.39,8.15,2.87,7.23,2-2.52-2.27-8.09-2.61-8-2.42S147.06,52.32,147.06,52.32Z"/><path class="cls-10" d="M118.73,102a11,11,0,0,0,.14-2.77c-.2-.68-.94-1.68-.61-2.49,1.34-3.24,0-3.23,2-2.7,2.74.69,2.25.24,1.51,1.53-.49.85.92,1.54-.25,2.21-1.39.8-2.34.26-.55,2,.43.41.86.47.25,1.14s-1.06.8-1.29,1.31C119.47,103.31,118.85,103,118.73,102Z"/><path class="cls-11" d="M117.91,95.36c-.46-1.14-2.51-2.94-.65-2.34,2.33.75,1.24.18.93,2.33C118.15,95.62,118,95.43,117.91,95.36Z"/><path class="cls-8" d="M121.58,102s1.65-2.14,2.67-3.25,1.27-1.61,1.33-2.24.16-.85,1.3-.14a37.77,37.77,0,0,0,3.55,1.89c.67.29.94.27.29.8a25.58,25.58,0,0,1-2.8,2.28,9.79,9.79,0,0,1-3.65.78,14.42,14.42,0,0,1-2.79.09C121.47,102.1,121.58,102,121.58,102Z"/><path class="cls-8" d="M132.26,97.69a2.3,2.3,0,0,0-.61-2.11c-4.63-3.94-1.53-2.49,3.08-1.49,1.27.27,2.32,0,1.53.76C135.83,95.25,132.49,98.44,132.26,97.69Z"/><path class="cls-1" d="M120.48,95.45c-.09,0-.75.12-.72-.2s-.06-.7.36-.52C121.4,95.3,120.92,95.49,120.48,95.45Z"/><path class="cls-2" d="M94.13,25a73.74,73.74,0,0,1,2.75,8.44c7-7,25.5-5.56,33.24,1.74,0-2.67.88-5.9,2.5-7.73.08.26.17.5.25.75L132,29.93a23.58,23.58,0,0,0-1.34,5.8.94.94,0,0,0,.1.1l-.13.06c-.07.34-.14.54-.24.52-.64-.16-3.31-4.81-13.61-6.11-14-1.76-17.57,2.79-19.24,4.34s-1.88.09-1.84-1.58c0-1.42-1-2.85-2.78-7.55a.66.66,0,0,1,.33-.85A.64.64,0,0,1,94.13,25Z"/><path class="cls-2" d="M94.79,28.55c7.87-3.63,11.13-6.18,19.54-3.94-9.06-.86-10.7.94-19,5.12a.64.64,0,0,1-.85-.33A.65.65,0,0,1,94.79,28.55Z"/><path class="cls-2" d="M114.05,20.71c-2.83.14-4.24,1.33-5.66,3.55-.34-2.75,3.46-4.53,5.66-4.84a.65.65,0,1,1,0,1.29Z"/><path class="cls-2" d="M100.82,25.39c0-1.69-.68-6.49-3.18-4-.68-1.13,3.75-3.5,4.47,4a.65.65,0,0,1-.65.64A.64.64,0,0,1,100.82,25.39Z"/><path class="cls-2" d="M98.16,27.17c-.23-1.11-.94-1.52-1.58-2.43a3.2,3.2,0,0,1,2.84,2.14.64.64,0,0,1-.48.77A.65.65,0,0,1,98.16,27.17Z"/><path class="cls-2" d="M96.21,34.43c-4.75-.9-9.12-1.74-8.93-8.07a4.85,4.85,0,0,1,1.49-3.65q.18.33.39.66A3.19,3.19,0,0,0,88.3,25c-1.26,6.24,3.19,7.39,7.91,8.19a.65.65,0,0,1,0,1.29Z"/><path class="cls-2" d="M90.13,24.73c-5.73-7-3.46-19.15,5.54-18.86a6.65,6.65,0,0,1,3.26,1.22c-.09.3-.18.63-.26.95a6.24,6.24,0,0,0-3-1.2c-8-.12-9.57,10.79-4.69,16.89a.64.64,0,0,1,.09.9A.65.65,0,0,1,90.13,24.73Z"/><path class="cls-2" d="M115.59,4.48C114,1,102.68-1.17,99.75,6c-1.1,2.71-.43,1.61-1.43,3.37.13-.71,1-3.51,1-3.53,2.52-7.83,15.21-6.67,17.55-1.77a.64.64,0,0,1-.43.8A.63.63,0,0,1,115.59,4.48Z"/><path class="cls-2" d="M113.76,5.15c6.36-3.58,15.51-1.23,19,5.65,4.31,8.49,12.45,5.47,12.1,17.92-.23,8.51-9.43,8.82-12.45-2l.5-.15c4.16,10.77,11.13,9.29,11.2,2.12.12-12.3-7.63-8.48-12.31-17.45C128.6,5.13,120.14,3,114.55,6.17a.64.64,0,0,1-.9-.11A.65.65,0,0,1,113.76,5.15Z"/><path class="cls-2" d="M132.79,26.63c-7.94,2.35-10.09.89-13.75-6.54-3.15-6.41-8.25-6.67-13.76-3.24,4.32-4.87,11.42-3.17,14.58,2.83,3.69,7,5.25,8,12.66,5.69a.65.65,0,0,1,.76.49A.64.64,0,0,1,132.79,26.63Z"/><path class="cls-6" d="M118.9,106.05a14,14,0,0,1,7.62,1.79,11,11,0,0,1,4.06,4.65,13.59,13.59,0,0,1,1.36,6.05q0,5.86-3.25,9.4t-9.2,3.64h-5.31a4.8,4.8,0,0,1-3.08-.75,3.8,3.8,0,0,1-.87-2.92V110.14a4.58,4.58,0,0,1,.87-3.18,4.32,4.32,0,0,1,3.15-.91ZM116,126.19h2.66q6.91,0,6.92-7.69,0-7-7-7H116v14.72Zm18-7.34a13.49,13.49,0,0,1,3.22-9.34,11.37,11.37,0,0,1,9-3.77,11.49,11.49,0,0,1,9,3.74,15.24,15.24,0,0,1,0,18.71,11.59,11.59,0,0,1-9,3.7,11.38,11.38,0,0,1-9-3.74,13.32,13.32,0,0,1-3.22-9.3Zm6.15.07a8.88,8.88,0,0,0,1.44,5.21,5.21,5.21,0,0,0,4.61,2.42,5.35,5.35,0,0,0,4.66-2.38,9.14,9.14,0,0,0,1.43-5.25,9.72,9.72,0,0,0-1.36-5.35,5.34,5.34,0,0,0-4.73-2.48,5.24,5.24,0,0,0-4.68,2.48,9.63,9.63,0,0,0-1.37,5.35Zm24.52,13c-1.94,0-2.9-1.37-2.9-4.12V109.66c0-2.62.89-3.92,2.69-3.92a4,4,0,0,1,3.08,1.89l10.73,14.19v-12q0-4.12,2.9-4.12t2.91,4.12v18.57c0,2.4-.89,3.61-2.66,3.61-1.17,0-2.27-.71-3.32-2.1L167.61,116v11.75q0,4.13-2.9,4.12Zm34.51-25.84q4.13,0,4.13,2.73t-4.13,2.69h-4.75V116h4.09q4.13,0,4.12,2.69t-4.12,2.7h-4.09v4.78h4.93q4.13,0,4.12,2.7t-4.12,2.69h-6.79a4.77,4.77,0,0,1-3.07-.75,3.76,3.76,0,0,1-.88-2.92V110.14a4.53,4.53,0,0,1,.88-3.18,4.31,4.31,0,0,1,3.14-.91Zm13.36,11.58h2.69q3.71,0,3.71-3.19c0-2-1.21-3-3.64-3h-2.76v6.23Zm0,3.84v6.3q0,4.13-2.9,4.12c-1.94,0-2.9-1.37-2.9-4.12V110.14a4.58,4.58,0,0,1,.87-3.18,4.32,4.32,0,0,1,3.15-.91h4.51a11.55,11.55,0,0,1,6.78,1.82A7.09,7.09,0,0,1,225,114a6.63,6.63,0,0,1-1.63,4.63,7.32,7.32,0,0,1-4.45,2.25l4.58,5.11a5.47,5.47,0,0,1,1.71,3.32,2.59,2.59,0,0,1-.79,2,2.71,2.71,0,0,1-2,.77c-1,0-2-.69-3.11-2.06Z"/><path class="cls-6" d="M142.08,100.12a2.33,2.33,0,1,1-2.39,2.33A2.36,2.36,0,0,1,142.08,100.12Z"/><path class="cls-6" d="M150,100.12a2.33,2.33,0,1,1-2.38,2.33A2.36,2.36,0,0,1,150,100.12Z"/><path class="cls-6" d="M14.93,129.13a2.59,2.59,0,0,1-.66,1.71,2.41,2.41,0,0,1-1.95.77H2.83a2.85,2.85,0,0,1-2-.74,2.51,2.51,0,0,1-.81-2V109.08a3.51,3.51,0,0,1,.7-2.26,2.62,2.62,0,0,1,2.17-.88H12a2.39,2.39,0,0,1,2,.78,2.56,2.56,0,0,1,0,3.42,2.44,2.44,0,0,1-1.95.78H5.52v5.26h6a2.51,2.51,0,0,1,2,.78,2.52,2.52,0,0,1,0,3.42,2.52,2.52,0,0,1-2,.78h-6v5.48h6.8a2.42,2.42,0,0,1,2,.77A2.64,2.64,0,0,1,14.93,129.13Z"/><path class="cls-6" d="M36.91,127.79a2.77,2.77,0,0,1-.9,2.13,6.55,6.55,0,0,1-2.2,1.3,13.66,13.66,0,0,1-2.72.65,22.06,22.06,0,0,1-2.45.18,12.66,12.66,0,0,1-5.15-1,12.48,12.48,0,0,1-4-2.81A12.79,12.79,0,0,1,16.91,124a14.58,14.58,0,0,1-.92-5.22,14.78,14.78,0,0,1,.92-5.25,12.84,12.84,0,0,1,2.59-4.22,12,12,0,0,1,4-2.79,12.82,12.82,0,0,1,5.15-1,18.45,18.45,0,0,1,2.36.18,11.7,11.7,0,0,1,2.59.65,6.44,6.44,0,0,1,2.09,1.24,2.52,2.52,0,0,1,.87,2,2.48,2.48,0,0,1-.63,1.69,2.09,2.09,0,0,1-1.65.72,2.79,2.79,0,0,1-1.07-.2l-1.14-.43a11.72,11.72,0,0,0-1.43-.43,8.6,8.6,0,0,0-2-.2,6.28,6.28,0,0,0-5.16,2.45,7.76,7.76,0,0,0-1.31,2.6,11,11,0,0,0-.44,3.13,10.55,10.55,0,0,0,.44,3.07,7.39,7.39,0,0,0,1.32,2.52,6.68,6.68,0,0,0,2.17,1.73,6.44,6.44,0,0,0,3,.65,7.86,7.86,0,0,0,2-.23,12,12,0,0,0,1.51-.52l1.21-.53a2.94,2.94,0,0,1,1.11-.23,2.09,2.09,0,0,1,1.08.27,2.69,2.69,0,0,1,.76.65,2.94,2.94,0,0,1,.44.79A2.17,2.17,0,0,1,36.91,127.79Z"/><path class="cls-6" d="M61.27,131.32a3,3,0,0,1-3.93,0,2.66,2.66,0,0,1-.79-2.09v-8.07H45v8.07a2.66,2.66,0,0,1-.79,2.09,3,3,0,0,1-3.93,0,2.66,2.66,0,0,1-.79-2.09V108.32a2.68,2.68,0,0,1,.79-2.09,3,3,0,0,1,3.93,0,2.68,2.68,0,0,1,.79,2.09v7.86H56.55v-7.86a2.68,2.68,0,0,1,.79-2.09,3,3,0,0,1,3.93,0,2.68,2.68,0,0,1,.79,2.09v20.91A2.66,2.66,0,0,1,61.27,131.32Z"/><path class="cls-6" d="M81.81,108.43a2.79,2.79,0,0,1-.59,1.71,2.24,2.24,0,0,1-1.91.78h-4v18.31a2.66,2.66,0,0,1-.79,2.09,3,3,0,0,1-3.93,0,2.66,2.66,0,0,1-.79-2.09V110.92h-4a2.24,2.24,0,0,1-1.91-.78,2.73,2.73,0,0,1-.59-1.71,2.55,2.55,0,0,1,.66-1.71,2.27,2.27,0,0,1,1.84-.78H79.31a2.29,2.29,0,0,1,1.84.78A2.55,2.55,0,0,1,81.81,108.43Z"/><path class="cls-6" d="M98,129.13a2.59,2.59,0,0,1-.66,1.71,2.41,2.41,0,0,1-2,.77H85.85a2.85,2.85,0,0,1-2-.74,2.51,2.51,0,0,1-.81-2V109.08a3.51,3.51,0,0,1,.7-2.26,2.63,2.63,0,0,1,2.17-.88H95a2.38,2.38,0,0,1,2,.78,2.56,2.56,0,0,1,0,3.42,2.41,2.41,0,0,1-1.95.78H88.54v5.26h6a2.51,2.51,0,0,1,2,.78,2.52,2.52,0,0,1,0,3.42,2.51,2.51,0,0,1-2,.78h-6v5.48h6.8a2.44,2.44,0,0,1,2,.77A2.68,2.68,0,0,1,98,129.13Z"/><path class="cls-8" d="M12,101.05a2.78,2.78,0,0,1-.43,1.59,1.4,1.4,0,0,1-1.24.65H4a1.4,1.4,0,0,1-1.25-.65,2.85,2.85,0,0,1-.42-1.59,3,3,0,0,1,.42-1.64A1.39,1.39,0,0,1,4,98.75h6.25a1.38,1.38,0,0,1,1.24.66A3,3,0,0,1,12,101.05Z"/></g></g></svg>