<svg xmlns="http://www.w3.org/2000/svg" viewBox="0 0 107.79 103.85"><defs><style>.cls-1{fill:#fffbdc;}.cls-1,.cls-10,.cls-11,.cls-2,.cls-3,.cls-4,.cls-5,.cls-6,.cls-7,.cls-8,.cls-9{fill-rule:evenodd;}.cls-3{fill:none;stroke:#1d1d1b;stroke-miterlimit:22.93;stroke-width:0.44px;}.cls-4{fill:#fff;}.cls-5{fill:#1d1d1b;}.cls-6{fill:#e30613;}.cls-7{fill:#009640;}.cls-8{fill:#fc0;}.cls-9{fill:#d99e17;}.cls-10{fill:#ef7d00;}.cls-11{fill:#fff482;}</style></defs><title>Ресурс 2</title><g id="Слой_2" data-name="Слой 2"><g id="_1" data-name="1"><path class="cls-1" d="M60.64,100.34c0-.09-.3-.7,0-.74s.66-.24.59.22C61,101.2,60.71,100.78,60.64,100.34Z"/><path class="cls-2" d="M74,10.8c4.31,8.49,12.44,5.47,12.1,17.92-.22,8.11-8.59,8.77-12-.53l-.84,1.74A21.29,21.29,0,0,0,72,35.38c.43,2.14.8,3.88.8,3.88.17.41-.13.2.82,0,1.57-.39,2.51.32,2.95,2,.33,1.25-.93,3.48-.31,4.38,1.46,2.1.09,3.45,4.09,3.23,2.22-.13.47-1.46,6-2,1.69-.16,5.28,2,5.79,2.6.79.94,6.93,3.21,10.72,6.64,2.8,3,6,6.43,4.14,15.88-.18.89-2.87,2.38-5.47,4.82S89.81,86.48,87.89,87.9,84.82,90.57,85,90.61c.78.16,2.75-.47,3,1.26.17,1.3,1.32,0,2.91,1.22.31.23-.48,1.69-3.74,3.38a22.62,22.62,0,0,1-7.87,2.6,3.62,3.62,0,0,1-2.48-1.31c-.33-.42-.42-.27-1.25.36s-6,4.29-7.27,4.72-5,.51-6.67.71c-3.81.45-2.06-.83-3.32-5.7a15.69,15.69,0,0,0-1.57-3.15c-.43-.78-1-.43-1.46.12s-4.64,2.2-7.55,2.59a58.2,58.2,0,0,1-8.5.27,5.62,5.62,0,0,1-4.57-2c-1.62-1.48-9.26-1.82-10.87-4.17-.51-.75-3.19-2.4-4.48-3.5S14,86.49,13.79,86.36s-1.11,1.21-1.48,1.75c-.65,1-1.44-.56-1.5-.62-.43-.43-6.38,5.14-5,3.14.17-.24,1.77-1.85,1.92-2.08.28-.45-4.2,1.64-6-.14A8.72,8.72,0,0,1,.22,84.25c0-1.26,2.8.25,6.24.43,1.08.06,3.77,0,3.77,0-2.23-1-4.46-1.88-6.3-4.39-.74-1-.92-1.3-1.18-3.36-.34-2.8,4.83-6,8.5-2.61-.4-.79-.19-6.18,0-7.61s2-4,4.15-6,3.43-2.36,6-3.19c-.5-.37-1-.77-1.44-1.15a1.8,1.8,0,0,1-1.23-1c-.5-1.2.84-.86,1.35-.63,1.8,1,4.24-1,6.06-1.59-.49-.72-1.45-1-.22-4.94.2-.63-.39-6.43,2.67.25a3.48,3.48,0,0,0,.22.43,2.82,2.82,0,0,1,.07-.31A12.06,12.06,0,0,1,31,45c.41-.37-1.54-.8-1.43-4.39,0-.65,1.43-2.06,2.16-2.63a3.22,3.22,0,0,1,2.19-.4c.38,0,.49-.37.79-.88.48-.84,1.06-1.69,1.63-2.53-4.27-.85-7.94-2-7.77-7.84A4.89,4.89,0,0,1,30,22.71c-3.89-7.06-1.27-17.1,6.9-16.84a6.69,6.69,0,0,1,3.27,1.22c.18-.66.34-1.2.34-1.21C43-1.86,55.48-.81,58,4,64,2.36,71.06,4.94,74,10.8Z"/><path class="cls-3" d="M74,10.8c4.31,8.49,12.44,5.47,12.1,17.92-.22,8.11-8.59,8.77-12-.53l-.84,1.74A21.29,21.29,0,0,0,72,35.38c.43,2.14.8,3.88.8,3.88.17.41-.13.2.82,0,1.57-.39,2.51.32,2.95,2,.33,1.25-.93,3.48-.31,4.38,1.46,2.1.09,3.45,4.09,3.23,2.22-.13.47-1.46,6-2,1.69-.16,5.28,2,5.79,2.6.79.94,6.93,3.21,10.72,6.64,2.8,3,6,6.43,4.14,15.88-.18.89-2.87,2.38-5.47,4.82S89.81,86.48,87.89,87.9,84.82,90.57,85,90.61c.78.16,2.75-.47,3,1.26.17,1.3,1.32,0,2.91,1.22.31.23-.48,1.69-3.74,3.38a22.62,22.62,0,0,1-7.87,2.6,3.62,3.62,0,0,1-2.48-1.31c-.33-.42-.42-.27-1.25.36s-6,4.29-7.27,4.72-5,.51-6.67.71c-3.81.45-2.06-.83-3.32-5.7a15.69,15.69,0,0,0-1.57-3.15c-.43-.78-1-.43-1.46.12s-4.64,2.2-7.55,2.59a58.2,58.2,0,0,1-8.5.27,5.62,5.62,0,0,1-4.57-2c-1.62-1.48-9.26-1.82-10.87-4.17-.51-.75-3.19-2.4-4.48-3.5S14,86.49,13.79,86.36s-1.11,1.21-1.48,1.75c-.65,1-1.44-.56-1.5-.62-.43-.43-6.38,5.14-5,3.14.17-.24,1.77-1.85,1.92-2.08.28-.45-4.2,1.64-6-.14A8.72,8.72,0,0,1,.22,84.25c0-1.26,2.8.25,6.24.43,1.08.06,3.77,0,3.77,0-2.23-1-4.46-1.88-6.3-4.39-.74-1-.92-1.3-1.18-3.36-.34-2.8,4.83-6,8.5-2.61-.4-.79-.19-6.18,0-7.61s2-4,4.15-6,3.43-2.36,6-3.19c-.5-.37-1-.77-1.44-1.15a1.8,1.8,0,0,1-1.23-1c-.5-1.2.84-.86,1.35-.63,1.8,1,4.24-1,6.06-1.59-.49-.72-1.45-1-.22-4.94.2-.63-.39-6.43,2.67.25a3.48,3.48,0,0,0,.22.43,2.82,2.82,0,0,1,.07-.31A12.06,12.06,0,0,1,31,45c.41-.37-1.54-.8-1.43-4.39,0-.65,1.43-2.06,2.16-2.63a3.22,3.22,0,0,1,2.19-.4c.38,0,.49-.37.79-.88.48-.84,1.06-1.69,1.63-2.53-4.27-.85-7.94-2-7.77-7.84A4.89,4.89,0,0,1,30,22.71c-3.89-7.06-1.27-17.1,6.9-16.84a6.69,6.69,0,0,1,3.27,1.22c.18-.66.34-1.2.34-1.21C43-1.86,55.48-.81,58,4,64,2.36,71.06,4.94,74,10.8Z"/><path class="cls-2" d="M72.83,39.26s-1.93-9.16-2.2-11.4-1.91-8.7-.82-11.09c1.7-3.72-5.16-7.83-9.65-7.49-3.65.27-4.27,2-4.82,1.6S50.92,5.1,49,7.45L37.64,21.22l1.7,6.92c-.21,2.68-3,5.66-4.65,8.59-.3.51-.41.9-.79.88a3.22,3.22,0,0,0-2.19.4c-.73.56-2.14,2-2.16,2.63-.11,3.59,1.84,4,1.43,4.39a12.06,12.06,0,0,0-2.12,3.46c-.7,2.81-.2,5.73.1,8.14a20.81,20.81,0,0,0-7.42.79c-2.69.86-4,1.18-6.17,3.24s-4,4.59-4.15,6-.37,6.82,0,7.61c-3.68-3.34-8.84-.19-8.5,2.61C3,79,3.19,79.23,3.93,80.25c1.84,2.51,4.07,3.35,6.3,4.39,0,0-2.69.1-3.77,0C3,84.5.26,83,.22,84.25a8.72,8.72,0,0,0,1.51,4.16c1.78,1.78,6.26-.31,6,.14-.15.23-1.75,1.84-1.92,2.08-1.36,2,4.59-3.57,5-3.14.06.06.85,1.58,1.5.62.37-.54,1.25-1.87,1.48-1.75S18,86.91,19.32,88s4,2.75,4.48,3.5c1.61,2.35,9.25,2.69,10.87,4.17a5.6,5.6,0,0,0,4.57,2,58.2,58.2,0,0,0,8.5-.27c2.91-.39,7-2,7.55-2.59s1-.9,1.46-.12a15.69,15.69,0,0,1,1.57,3.15c1.26,4.87-.49,6.15,3.32,5.7,1.65-.2,5.45-.28,6.67-.71s6.44-4.09,7.27-4.72.92-.78,1.25-.36a3.62,3.62,0,0,0,2.48,1.31,22.62,22.62,0,0,0,7.87-2.6c3.26-1.69,4-3.15,3.74-3.38-1.59-1.19-2.74.08-2.92-1.22-.23-1.73-2.2-1.1-3-1.26-.2,0,.94-1.3,2.87-2.71S99,79.23,101.57,76.79,106.86,72.86,107,72c1.81-9.45-1.34-12.9-4.14-15.88-3.79-3.43-9.93-5.7-10.72-6.64-.51-.61-4.1-2.76-5.79-2.6-5.54.51-3.79,1.84-6,2-4,.22-2.64-1.12-4.09-3.23-.62-.9.64-3.13.31-4.38-.44-1.67-1.39-2.38-2.95-2C72.7,39.46,73,39.67,72.83,39.26Z"/><path class="cls-4" d="M40.78,35.64c-.12,0-2.25.36-2.74,1a4.5,4.5,0,0,0-.86,2.89c.22.69,2,1.23,2.55,1.57s.9.94.61.8a12,12,0,0,0-4.14-.29c-1.57.23-2.7,1.52-4.16,3.13S31,49,31.2,52.08s.91,3.62,2.32,5.27a41.64,41.64,0,0,0,5.62,5.3c2.21,1.73,5.75,4.51,8,5.14s5.63,1.57,6.18,1a43,43,0,0,0,3.5-5.5c.72-1.61.24-1.92-.24-2.67a18.19,18.19,0,0,1,2.87-2.06c2.11-.54,1.39,1.37,4-2.34.14-.19,1.75-2.52,1-2.13-1.35.67-2.94-.45-5.11,2.67-2.06,3-5.79,4.62-9.58,2.27-1.46-.91-2.93-3.69-4-4.34-2.56-1.56-4.4.8-6.94-2.79-.47-.68-.9-2.09-.68-2s.39.73.93,1.16c2.24,1.75,5.49,1.57,8.63.87.4-.09,2-.33,2-1.34a1.94,1.94,0,0,0-.95-1.5c-.48-.25-.4-1-.27-1.53.27-1,.48-1.5.48-.58a1.59,1.59,0,0,0,2.65,1.45c1.36-2.21.65-.7,1.92.53.81.79,3.07.17,3.64-.87.41-.75.3-2-.72-3.33,1.48.59,1.71,2.21,1.67,3.49,0,.75,1.78,1.16,2.22-.27.36-1.15,0-2.35.5-1.65a3.07,3.07,0,0,1,.56,2.49c-.08.48-1.18,1.12-1.3,1.52-.46,1.55,3.75,2.11,5,2.31a6,6,0,0,0,3.38-.51,3.54,3.54,0,0,1-2.25,1.34c.38.45,1.54,1.42,1.75,1.34a10.26,10.26,0,0,0,2.5-.57,5.66,5.66,0,0,0,.4-1.84l.36-1c.63-1.85,1.36-3.56,2.3-3a9.45,9.45,0,0,0,1.38.79c2.35.7-.36-5.8-4.73-5.72-3.41.07-4.1.2-3-.39,2.8-1.5,3.62-.66,6.11-1.33,1.21-.33.45,1,.7,1.69.44,1.12,1.79-.1,1.59-1.93-.31-2.93-2.59-2.32-2.92-2-2.43,2.1-3,3.55-3.65-.29S67.18,35,66.42,34.9a1.43,1.43,0,0,1-.82.61c-.8.27-3.16-.25-4.57-.88-1.14-.52-1.08-1.21-1.3-1.26a39.68,39.68,0,0,0-4.93,0,32,32,0,0,0-5.17.43c.08,1.29-6.88,2.57-7.58,1.13Z"/><path class="cls-4" d="M31.72,40.64c.28.52,1.34,1.75.74,2.59a1.64,1.64,0,0,1-2-.12c-1.44-2,.75-5.2,2.14-5.12,2.8.15,3.56,2.22,3.34,2.7-.93,2.05-2.32-.15-3.1-.45C31.48,39.75,31.71,40.45,31.72,40.64Z"/><path class="cls-5" d="M43.61,40.85C42.89,38.38,47,37.09,48,37.2c3.11.33,3.94,3.26,2.41,3.65C49.75,41,43.88,41.57,43.61,40.85Z"/><path class="cls-5" d="M58.45,40.68c-.66-2.77,3.66-3.12,5-2.7,3,.91,3.25,3.14,1.66,3.84C64.5,42.11,58.64,41.74,58.45,40.68Z"/><path class="cls-4" d="M49.44,39.83c-1.45-.72.37-2,.59-.84C50.14,39.57,50.11,40,49.44,39.83Z"/><path class="cls-4" d="M64.89,40.63a.62.62,0,1,0-.8.52A.68.68,0,0,0,64.89,40.63Z"/><path class="cls-5" d="M56.83,38.24c.34-2.49,2.15-3.73,1.34-1.41-.6,1.7-.81,1.06-.84,3.22,0,.18,0,1.13,0,1.19C57.12,41.63,56.71,39.09,56.83,38.24Z"/><path class="cls-4" d="M48.5,53.93c.16-.12,1.45-1.36,2-1.83s1.32-.57,1,0a4.37,4.37,0,0,1-1.35,1.57c-.59.37-1.57.79-1.73.67s-.2-.11-.08-.24Z"/><path class="cls-4" d="M50.31,54.93c.66,0,1.7,1,3.31.37,5.48-2.24,3.33,2.39-.51,1.51-1.52-.35-3.57-1.27-3-1.78A.42.42,0,0,1,50.31,54.93Z"/><path class="cls-4" d="M48.78,55.59c3.24,2.23,4.56,3.31,9.18.63.61-.35,1-.08,1,.2a5.69,5.69,0,0,1-2.53,2.19C50.36,60.6,47.06,54.72,48.78,55.59Z"/><path class="cls-5" d="M48.6,63.5c0-1.32,0-1.56,1.67.73a2.76,2.76,0,0,0,3.67.73A8.68,8.68,0,0,1,56,64c1.61-.07-1.29,1.92-2.34,2C51.1,66.24,49.53,65.56,48.6,63.5Z"/><path class="cls-4" d="M52.79,70.4s-2.56,1.14-4.17.63a14.09,14.09,0,0,1-4.48-2.2c-1.06-.91-2.24-1.93-1-1.53a52.13,52.13,0,0,0,5.46,1.8c1.42.24,3.62.65,3.87.71s.72.33.59.43A1.73,1.73,0,0,1,52.79,70.4Z"/><path class="cls-4" d="M41.07,66.82s3.11,3.7,4.8,4.33c3.14,1.17,6.43,1.32,5.5,2-1.95,1.37-8.6-2-11-5.44C38.3,64.59,39.35,64.94,41.07,66.82Z"/><path class="cls-4" d="M40.51,70.45c.08,2.07,1.75,3.86,4.67,3.93,5.06.12,4.53.46.55-1.55a23.37,23.37,0,0,1-3.8-2.14C41.1,69.87,40.56,69.52,40.51,70.45Z"/><path class="cls-6" d="M51.85,76.58c-3.55,1.83-9.28-.45-10.9-2-1.16-1.1-1-10.73-8.84-15.37-2.12-1.26-4-2.29-6-2.09a20.65,20.65,0,0,0-6.45,1.53c-5.38,2.76,1.27-.25,4.11.39,4.47,1,9.6,4.29,9.19,9.52-.07.85-.87,4,0,2.41,2.13-4,0,3,.7,3.49,4.16,2.91,2.74,6.61,4.33,6.61,4,0,6.65-.9,12.26.31,3.25.7,2.53,1.68,2.53-4.36C52.72,76,52.87,76.09,51.85,76.58Z"/><path class="cls-6" d="M15.68,78.74c.21-.21,2.16-4.59,2.16-2.2,0,.27.2-.28,1.08-1,0,0,5.35-2.86,5.63-3,3.73-1.4,6.67.65,6.89-2.7.12-1.77-.24-5.66-3-7.51-4.7-3.11-7.6-3.5-11.71-.82-1.52,1-5,3.92-3.14,3.06,3.53-1.63.23.72-.65,2.36-1.73,3.24.69-.12,2-.55,1.5-.5-.8,1.24-1.55,2.47-1.85,3,2.83-1.59,1.27.61-2.3,3.25-2.58,4.74-2.1,4.16.2-.24,1.38-1.47,1.69-1.82,1.25-1.41-.75,2.79-.82,3-.65,2.31.27.16,1.21-.83,1.71-1.8-.38,2.23-.49,3-.25,1.66.26.18,1.26-1.4,1.62-2.55-.37,2.61,0,3.32C15.46,79.15,15.39,79.23,15.68,78.74Z"/><path class="cls-7" d="M16.82,81.93s-1.18-.57-.94-1.15A21.26,21.26,0,0,1,20.69,76,22.26,22.26,0,0,1,27,73.22c5.27-.73,5.6.84,4.14,1.14a22,22,0,0,0-5.85,1.55,35.73,35.73,0,0,0-5.83,3.59C17.65,81.1,17.21,82,16.82,81.93Z"/><path class="cls-6" d="M11,75.18c-3.74-4.67-8.43.25-7.48,3.36C4.22,81,8.39,83.92,11.21,84c3.07.06,4.42-1,2.72-1a9.57,9.57,0,0,1-4.73-.7c-1.92-1-3.9-2.38-4.1-3.67-.95-6.32,6.31-2.63,6-3.2A1.47,1.47,0,0,1,11,75.18Z"/><path class="cls-4" d="M14.9,80.52c-.63-1.45-1.89-1-2.42-2-2.76-4.83-8.57-2.83-6.12.69C7.66,81.09,15.37,84.28,14.9,80.52Z"/><path class="cls-6" d="M2.73,88.67a7.87,7.87,0,0,1-1.47-3c-.06-1.14-.34-1.18,2.08-.87a46.64,46.64,0,0,0,9.46,0c2.2-.31,4-.7,3.93-.43s-.15.47-1.49.87a51.74,51.74,0,0,1-5.62,2A39.52,39.52,0,0,0,4.3,88.59C3,89.25,3,89,2.73,88.67Z"/><path class="cls-6" d="M58,4c6-1.59,13,1,16,6.85,4.31,8.49,12.44,5.47,12.1,17.92-.22,8.11-8.59,8.77-12-.53l-.84,1.74A23.58,23.58,0,0,0,72,35.73l.09.1-.12.06c-.07.34-.15.54-.24.52-.64-.16-3.31-4.81-13.62-6.11-13.95-1.76-17.56,2.79-19.23,4.34-1.2,1.1-1.64.66-1.79-.29-4.58-.88-8.69-1.85-8.51-8A4.89,4.89,0,0,1,30,22.71c-3.89-7.06-1.27-17.1,6.9-16.84a6.69,6.69,0,0,1,3.27,1.22c.18-.66.34-1.2.34-1.21C43-1.86,55.48-.81,58,4Z"/><path class="cls-3" d="M58,4c6-1.59,13,1,16,6.85,4.31,8.49,12.44,5.47,12.1,17.92-.22,8.11-8.59,8.77-12-.53l-.84,1.74A23.58,23.58,0,0,0,72,35.73l.09.1-.12.06c-.07.34-.15.54-.24.52-.64-.16-3.31-4.81-13.62-6.11-13.95-1.76-17.56,2.79-19.23,4.34-1.2,1.1-1.64.66-1.79-.29-4.58-.88-8.69-1.85-8.51-8A4.89,4.89,0,0,1,30,22.71c-3.89-7.06-1.27-17.1,6.9-16.84a6.69,6.69,0,0,1,3.27,1.22c.18-.66.34-1.2.34-1.21C43-1.86,55.48-.81,58,4Z"/><path class="cls-4" d="M17.87,82.51s5.47-4.48,7.4-5.38,5.78-2,6.68-1.77a3.6,3.6,0,0,1,2.26,1.32,28.81,28.81,0,0,1,1.87,3.55c1.58,4,.82,1.39,6.13,1.3,15-.27,11.16,6.38,17.85-1.89C61.14,78.3,61.61,77.75,62,78s.53.35.37,1.06c-1.11,5-4.89,3.65,6.63,4a23.36,23.36,0,0,1,7.7,1.69c2.7,1.35,2.44,2.16-1.57,1.38-1.69-.33-3.12-.33-4.48-.62-1.17-.26-2.27.23-1.94.41.72.38,14,2.78,12.75,4.1-.8.89-9.66-1.37-11.12-.82-.63.23-1.38.86-.67.94s3.61.94,5,1.18,4.37,1.61,4.25,2c-.36,1.33-6.67-1.13-9.52-1-1,0-.94,0-.51.63a25,25,0,0,0,3.3,2.87c.63.46,1.92,3.45-1.92.79s-11.58-3.65-13.33-4.52c-.87-.44-1.06-.28-1.57.07a22.41,22.41,0,0,1-7,3.58c-3.42.87-8,1.26-10.3.36a37.1,37.1,0,0,1-5-2.56c-.74-.41-8-1.4-12.23-6.49C18.12,83.86,17,83.13,17.87,82.51Z"/><path class="cls-8" d="M54.68,82.71a70,70,0,0,1,0-8.93c.5-3.44,5-10.89,6.07-10.37s2.27,1.53,1.06,1.86c-.65.18-1-.16-1.08.35-.15,2-1.43,2.31-1.51,3-.13,1.17-2.41,1.32.45,2.14.41.11.73.11.67.82-.2,2.44-2.24-.26-1.42,3.71.24,1.14.59,1.57-.11,2.16s-1.46.63-1.18,1.3,1,.74.55,1.37A7.06,7.06,0,0,1,56.6,82.2c-1.18.81-1.31.7-1.87.66Z"/><path class="cls-4" d="M47.74,51.57c.09-.07.82-.76,1.13-1s.74-.32.58,0a2.54,2.54,0,0,1-.76.88,2.12,2.12,0,0,1-1,.38c-.09-.07-.11-.06,0-.14Z"/><path class="cls-7" d="M71.54,36.32l0,.18c.68,2-1.15,2.11-1.67,2.55-.05-.08-.68-2-.74-2.14-.58-1-1.31-2.38-2.62-2.53.38-1.53-5.94-3.59-6.67-1.61h-.36c-1.09,0-2.94,0-4,0-2.21.05-3.86.29-5.89.41a1.27,1.27,0,0,0-1.23-1,19.11,19.11,0,0,0-5.51.93A1.71,1.71,0,0,0,42,34.43c-1,.75-3.44,1-4,1.58-.2,0-.08-.47,0-.61s.42-1.26.22-1.37c.23.58-.28,1.5.68.61,1.67-1.55,5.28-6.1,19.23-4.34C67.69,31.51,70.66,35.63,71.54,36.32Z"/><path class="cls-7" d="M53.33,70.28s-2.93,1.31-4.71.75A12.92,12.92,0,0,1,44.1,68.8c-1.17-1-2.79-2.38-1.44-2a56.06,56.06,0,0,0,6,2c1.56.27,4,.72,4.27.78s.79.37.65.48A1.85,1.85,0,0,1,53.33,70.28Z"/><path class="cls-7" d="M34.17,59c1.09.77,3.83,4.28,7.07,7.82a21.29,21.29,0,0,0,4.23,3.8c3.82,1.43,7.07,2,6,2.77-1.32.92-7.19-1-10.74-5.24-2-2.36-4.89-7.2-7-8.47C30.49,57.78,31.64,57.19,34.17,59Z"/><path class="cls-7" d="M40.48,70.4c.08,2.29,1.93,4.26,5.16,4.34,5.58.13,5,.51.6-1.72A25,25,0,0,1,42,70.66C41.13,69.76,40.54,69.37,40.48,70.4Z"/><path class="cls-7" d="M27.24,53.92c0-1.22-2.1-2.45-.86-5.07a3.48,3.48,0,0,0,.26-2.14c-.38-1.89.42.25.66.51.8.89.77,1.83,1.78,2.77.58.54,1.76,1.83,1.22,2.57-.09.12-.18.19-.36.43C29.89,53.05,27.29,53.85,27.24,53.92Z"/><path class="cls-7" d="M30.47,53.49s-2.07-.63-2.76.51a2,2,0,0,0,.63,2.92c.18.14,2.18.54,2.56.1.76-.86,1.28-1.69.73-2.93C31.53,53.86,31,53.81,30.47,53.49Z"/><path class="cls-7" d="M28.17,56.7c0-.09-.89-2.72-.93-2.78-.18-.24-.51-.16-1.29.18a35.37,35.37,0,0,0-3.75,1.43,2.28,2.28,0,0,1-2.15-.05,2.77,2.77,0,0,0-.73-.46c0-.35,1.57,1.7,2,2,1,.66,1.15,1.06,2.62,1.26s2.94.35,4-.94c.34-.4.16-.3.38-.75A1.49,1.49,0,0,1,28.17,56.7Z"/><path class="cls-2" d="M30.61,54.36c-3.95-.58-3.11,2.22-.07,2.29h0l0,0c.86-1,1.15-1.25.86-2.48h0a.78.78,0,0,0-.24-.17.82.82,0,0,1-.55.32Zm.72-.66c2,.83.38,3.44-.25,3.84-3.8,2.41-7.45-5.57-.78-5l0,.07a.87.87,0,0,1,1,.72A1,1,0,0,1,31.33,53.7Z"/><path class="cls-2" d="M26.36,53.9c0-1.68-2.06-.73-.46-5.78.2-.63-.39-6.43,2.67.25,1,2.12,3.43,3.24,1.23,4.81.45-1.14.76-1.13-.49-2.42a13,13,0,0,1-2-2.49c0,.07,0,.14-.05.22-1.14,4.65.56,2.4.85,5.45a.88.88,0,0,1-1.76,0Zm-.21-7.51h0Z"/><path class="cls-7" d="M27.24,53.92c0-1.22-2.1-2.45-.86-5.07a3.48,3.48,0,0,0,.26-2.14c-.38-1.89.42.25.66.51.8.89.77,1.83,1.78,2.77.58.54,1.76,1.83,1.22,2.57-.09.12-.18.19-.36.43C29.89,53.05,27.29,53.85,27.24,53.92Z"/><path class="cls-2" d="M26.68,54.73a25,25,0,0,1-5.11,1.64c3.78,3.55,6.5.6,6.86.24-.13.11-.06.08-.26.09l.08-.12c.08,0,0,0,.18,0s0,0,0,0l0,0h0A2,2,0,0,1,27.72,58c-2.65,2.47-5.6.21-7.78-1.63a1.77,1.77,0,0,1-1.23-1c-.17-.41.05-1.13.75-.87l0,0,.63.28c2.69,1.53,6.8-3.8,8.12-.78A.88.88,0,0,1,27.62,55,.87.87,0,0,1,26.68,54.73Z"/><path class="cls-7" d="M30.47,53.49s-2.07-.63-2.76.51a2,2,0,0,0,.63,2.92c.18.14,2.18.54,2.56.1.76-.86,1.28-1.69.73-2.93C31.53,53.86,31,53.81,30.47,53.49Z"/><path class="cls-7" d="M28.17,56.7c0-.09-.89-2.72-.93-2.78-.18-.24-.51-.16-1.29.18a35.37,35.37,0,0,0-3.75,1.43,2.28,2.28,0,0,1-2.15-.05,2.77,2.77,0,0,0-.73-.46c0-.35,1.57,1.7,2,2,1,.66,1.15,1.06,2.62,1.26s2.94.35,4-.94c.34-.4.16-.3.38-.75A1.49,1.49,0,0,1,28.17,56.7Z"/><path class="cls-2" d="M30.61,54.36c-3.95-.58-3.11,2.22-.07,2.29h0l0,0c.86-1,1.15-1.25.86-2.48h0a.78.78,0,0,0-.24-.17.82.82,0,0,1-.55.32Zm.72-.66c2,.83.38,3.44-.25,3.84-3.8,2.41-7.45-5.57-.78-5l0,.07a.87.87,0,0,1,1,.72A1,1,0,0,1,31.33,53.7Z"/><path class="cls-2" d="M26.68,54.73a25,25,0,0,1-5.11,1.64c3.78,3.55,6.5.6,6.86.24-.13.11-.06.08-.26.09l.08-.12c.08,0,0,0,.18,0s0,0,0,0l0,0h0A2,2,0,0,1,27.72,58c-2.65,2.47-5.6.21-7.78-1.63a1.77,1.77,0,0,1-1.23-1c-.17-.41.05-1.13.75-.87l0,0,.63.28c2.69,1.53,6.8-3.8,8.12-.78A.88.88,0,0,1,27.62,55,.87.87,0,0,1,26.68,54.73Z"/><path class="cls-4" d="M77.73,96.73c3.67-3.66,6.88-4.1,6.16-3.16-.23.31-4.53,3.47.16,1.34,2.16-1,2.49-1.32,3.83-1.61,8.72-1.93-6.46,6.88-9.48,5.12C77.58,97.94,77,97.33,77.73,96.73Z"/><path class="cls-8" d="M79.59,93.12c-2.67-2-3.72-1.77-7-2.63-4.73-1.22,3.59-.49,5.18-.1,5.23,1.31,6.43-.64,2.75-2.19-1-.42-1.53-.57-1.28-.75,2.43-1.68-4-5.15-10-5.33-2.4-.08-4.08,0-5.08,0-.6,0-1-.14-1.09-.38a2.22,2.22,0,0,1-.32-1.06c-.15-3.87.94-13.72,4.39-18.51,18.71-26,39.57-4,39.57,4,0,3.94.48,4.61-3.38,7.91-1.43,1.23-22.67,18.45-22.68,18.46C79.89,93.46,80,93.29,79.59,93.12Z"/><path class="cls-9" d="M79.59,93.12c-2.67-2-3.72-1.77-7-2.63-4.73-1.22,3.59-.49,5.18-.1,5.23,1.31,6.43-.64,2.75-2.19-1-.42-1.53-.57-1.28-.75,2.43-1.68-4-5.15-10-5.33-1.7-.05-3,0-4,0l0-.13s-1.34-6.84-.39-10.78c2.07-8.65,13.68-17.77,14.48-14.4a2.26,2.26,0,0,0,1.54,1.69c.92.57-2.16,3.56,2.48,6.56,1.34.87,1.85.91,1.22,2.44s-1.65,2.44-.39,2.75c5.81,1.46,7.47,4.53,8.84,3.23,1.9-1.79,5,1.46,6.73-.24,2.15-2.15,2.62-.41,5.11-2.55a2.84,2.84,0,0,1,1.68-.38c-.36,1.07-1.21,2.07-3.14,3.72-1.43,1.23-22.67,18.45-22.68,18.46C79.89,93.46,80,93.29,79.59,93.12Z"/><path class="cls-10" d="M58.83,79.33c-.42-.72.94-1.61.94-2.36a2.58,2.58,0,0,0-.28-1.36c-.31-.88-.45-2.1.2-2.21,1.81-.33.36-1.54,1.79-3.06,1.64-1.77.5-.9.74,3.45.08,1.41.28,2.61-.61,3s-.72.34-1.23,1.08A6.5,6.5,0,0,1,59,79.43C58.93,79.43,58.83,79.33,58.83,79.33Z"/><path class="cls-7" d="M58.61,69.86a8,8,0,0,0,2.14-2.45c.71-1.41,1.08-1.87,1.9-2.3s2.06-.92,1.83-.47a9.53,9.53,0,0,0-1.38,2.3c-.41,1.22-.68,2.18-1.53,2.59a8.85,8.85,0,0,1-3.11.54c-.16-.07-.17-.08,0-.14Z"/><path class="cls-7" d="M61,62.68a14.38,14.38,0,0,0-1.69-1.3c-.63-.35-1.61-.45-.57-.84s1.47-1,2.81-1.22A3.22,3.22,0,0,0,63.89,58a8.22,8.22,0,0,0,1.61-2.38c.39-1.12.22-2.1.71-2.2s.66.44,1.29,1,.9,1.08,2,.85,2.52-.24,2.26.18-1.33,1.57-1.69,2.13-.15,1.2-1.27,1.24a36,36,0,0,0-4.5.2,5.67,5.67,0,0,0-1.92,1.65,3.59,3.59,0,0,0-.94,1.66c0,.3.06.75-.08.64Z"/><path class="cls-7" d="M72.61,55.28c-.14,0-.77.31-.59-1s.94-4.06,1.55-4.57c1.18-1,1.91,1.4,2.92.39,1.89-1.89,2.91-.64,4.48-.55,3.17.18-3.48,1.88-7.82,5.43A3.83,3.83,0,0,1,72.61,55.28Z"/><path class="cls-7" d="M91.13,49a6.61,6.61,0,0,0-2-1.37c-1-.4-2-.52-1.78-.71a8.48,8.48,0,0,1,1.57-1.32c.45-.21.49-.19,1.25.83a7.54,7.54,0,0,1,1.3,2.25c0,.32.11.49,0,.44S91.13,49,91.13,49Z"/><path class="cls-6" d="M64.59,64.47c-5-.57-2.05-4.9.31-5.19,6.45-.81,3.18-.39.78,3.48C65,63.8,64.88,64.46,64.59,64.47Z"/><path class="cls-3" d="M64.59,64.47c-5-.57-2.05-4.9.31-5.19,6.45-.81,3.18-.39.78,3.48C65,63.8,64.88,64.46,64.59,64.47Z"/><path class="cls-6" d="M81.4,49c1.88-1.53,3.49-2.84,6.67-1.47,7.44,3.18.47,1.86-3.79,1.92C83.08,49.45,80.84,49.46,81.4,49Z"/><path class="cls-3" d="M81.4,49c1.88-1.53,3.49-2.84,6.67-1.47,7.44,3.18.47,1.86-3.79,1.92C83.08,49.45,80.84,49.46,81.4,49Z"/><path class="cls-1" d="M65.09,61.54a1.24,1.24,0,0,1-.22,1.12c-.25.35-.76.63-.8.18a1.48,1.48,0,0,1,.33-1.08c.22-.3.38-.36.48-.34A.56.56,0,0,1,65.09,61.54Z"/><path class="cls-1" d="M63.48,61.31c.29-.26.45-1.12,1.12-1.14s1.41.13,1.21-.1-.39-.32-1-.3A2,2,0,0,0,63.34,61c-.33.63-.33,1.12-.1.73Z"/><path class="cls-1" d="M64.58,57.93c.15-.12,1.31-.79,1.47-1.39s0-1.13.21-1.36.32-.39.32.47.37.77-.3,1.43a4.74,4.74,0,0,1-1.71,1.15c-.1,0-.19-.07-.15-.13A.91.91,0,0,1,64.58,57.93Z"/><path class="cls-1" d="M84.56,48.9c-.24-.22-1-.2-.86-.63s-.12-.69.54-.43C86.16,48.57,84.77,48.92,84.56,48.9Z"/><path class="cls-11" d="M56.6,81.25c0-.55-.27-6.56.32-8.17s.59-1.73.43-2.76C57,68.07,60.81,63.8,61.17,64s.78.29.75.61.12.58-.42.64-.93-.15-1,.18.45.4-.22,1.5a10.6,10.6,0,0,1-1.71,2.49c-.45.3-.82.16-.49.59s3.11.7,2,2.06c-.86,1-1.76.64-1.2,3.28.24,1.1.53,1.37.12,1.9s-1.39.49-1.23,1.18.82,1.3.39,1.81C57.26,81.31,56.83,82.19,56.6,81.25Z"/><path class="cls-9" d="M80.51,54.75s1.14-.47,2.32-1,2.34-1.49.79-.9-4,1.51-3.87,1.84a.35.35,0,0,0,.45.22Z"/><path class="cls-9" d="M88.33,52.32c2,.39,8.16,2.87,7.24,2-2.52-2.27-8.09-2.61-8-2.42S88.33,52.32,88.33,52.32Z"/><path class="cls-10" d="M60,102a11.54,11.54,0,0,0,.14-2.77c-.2-.68-.95-1.68-.61-2.49,1.34-3.24,0-3.23,2-2.7,2.74.69,2.25.24,1.51,1.53-.49.85.92,1.54-.25,2.21-1.4.8-2.34.26-.55,2,.43.41.86.47.25,1.14s-1.06.8-1.29,1.31C60.74,103.31,60.12,103,60,102Z"/><path class="cls-11" d="M59.18,95.36c-.45-1.14-2.5-2.94-.64-2.34,2.33.75,1.23.18.93,2.33C59.43,95.62,59.28,95.43,59.18,95.36Z"/><path class="cls-8" d="M62.86,102s1.64-2.14,2.66-3.25,1.28-1.61,1.34-2.24.16-.85,1.29-.14a37.74,37.74,0,0,0,3.56,1.89c.66.29.94.27.29.8a25.73,25.73,0,0,1-2.81,2.28,9.7,9.7,0,0,1-3.65.78,14.32,14.32,0,0,1-2.78.09C62.75,102.1,62.86,102,62.86,102Z"/><path class="cls-8" d="M73.53,97.69a2.27,2.27,0,0,0-.61-2.11C68.3,91.64,71.4,93.09,76,94.09c1.27.27,2.31,0,1.53.76C77.11,95.25,73.77,98.44,73.53,97.69Z"/><path class="cls-1" d="M61.76,95.45c-.09,0-.76.12-.72-.2s-.06-.7.35-.52C62.67,95.3,62.2,95.49,61.76,95.45Z"/><path class="cls-2" d="M35.41,25a73.74,73.74,0,0,1,2.75,8.44c7-7,25.49-5.56,33.24,1.74,0-2.67.88-5.9,2.49-7.73l.26.75-.84,1.74A23.58,23.58,0,0,0,72,35.73l.09.1-.12.06c-.07.34-.15.54-.24.52-.64-.16-3.31-4.81-13.62-6.11-13.95-1.76-17.56,2.79-19.23,4.34S37,34.73,37,33.06c0-1.42-1-2.85-2.77-7.55A.64.64,0,1,1,35.41,25Z"/><path class="cls-2" d="M36.06,28.55c7.88-3.63,11.14-6.18,19.55-3.94-9.06-.86-10.71.94-19,5.12a.64.64,0,0,1-.85-.33A.65.65,0,0,1,36.06,28.55Z"/><path class="cls-2" d="M55.33,20.71c-2.83.14-4.24,1.33-5.66,3.55-.34-2.75,3.46-4.53,5.66-4.84a.65.65,0,1,1,0,1.29Z"/><path class="cls-2" d="M42.09,25.39c0-1.69-.67-6.49-3.17-4-.69-1.13,3.75-3.5,4.46,4a.64.64,0,0,1-.64.64A.65.65,0,0,1,42.09,25.39Z"/><path class="cls-2" d="M39.44,27.17c-.24-1.11-.94-1.52-1.58-2.43a3.2,3.2,0,0,1,2.84,2.14.65.65,0,0,1-1.26.29Z"/><path class="cls-2" d="M37.48,34.43c-4.74-.9-9.11-1.74-8.93-8.07A4.89,4.89,0,0,1,30,22.71l.39.66A3.1,3.1,0,0,0,29.58,25c-1.26,6.24,3.19,7.39,7.9,8.19a.65.65,0,1,1,0,1.29Z"/><path class="cls-2" d="M31.41,24.73c-5.73-7-3.46-19.15,5.53-18.86a6.69,6.69,0,0,1,3.27,1.22c-.09.3-.18.63-.27.95a6.2,6.2,0,0,0-3-1.2c-8-.12-9.58,10.79-4.7,16.89a.64.64,0,0,1,.1.9A.65.65,0,0,1,31.41,24.73Z"/><path class="cls-2" d="M56.87,4.48C55.29,1,44-1.17,41,6c-1.1,2.71-.43,1.61-1.43,3.37.13-.71.95-3.51.95-3.53C43.07-1.95,55.75-.79,58.1,4.11a.64.64,0,0,1-.43.8A.63.63,0,0,1,56.87,4.48Z"/><path class="cls-2" d="M55,5.15c6.36-3.58,15.5-1.23,19,5.65,4.31,8.49,12.44,5.47,12.1,17.92-.23,8.51-9.43,8.82-12.45-2l.5-.15c4.16,10.77,11.13,9.29,11.2,2.12.12-12.3-7.63-8.48-12.31-17.45C69.87,5.13,61.42,3,55.83,6.17a.64.64,0,0,1-.9-.11A.65.65,0,0,1,55,5.15Z"/><path class="cls-2" d="M74.07,26.63C66.12,29,64,27.52,60.32,20.09c-3.16-6.41-8.26-6.67-13.76-3.24C50.88,12,58,13.68,61.14,19.68c3.69,7,5.25,8,12.65,5.69a.65.65,0,0,1,.77.49A.64.64,0,0,1,74.07,26.63Z"/></g></g></svg>