<svg xmlns="http://www.w3.org/2000/svg" viewBox="0 0 331.93 310.85"><defs><style>.cls-1{fill:#1d1d1b;}.cls-2{fill:none;stroke:#000;stroke-linecap:round;stroke-miterlimit:10;stroke-width:12px;}</style></defs><title>Ресурс 1</title><g id="Слой_2" data-name="Слой 2"><g id="Layer_1" data-name="Layer 1"><path d="M0,244.38a1.82,1.82,0,0,1,.07-.61,2.22,2.22,0,0,1,.13-.61c.07-.21.07-.41.14-.55a1.82,1.82,0,0,1,.27-.54,1.71,1.71,0,0,1,.27-.54,1.2,1.2,0,0,1,.34-.48c.13-.13.2-.34.34-.47a2.82,2.82,0,0,1,.47-.41l.41-.41a4,4,0,0,1,.54-.34,2.8,2.8,0,0,1,.47-.27l74.67-37a2.14,2.14,0,0,1,.67-.27c1.29-.48,32.09-11.28,57.27.07l55.57,20.18c.14.06.34.13.48.2a18.63,18.63,0,0,1-6.77,35.53h-.14c-.54,0-3-.13-28.29-1.76-11-.68-22.41-1.43-23.42-1.5a6.15,6.15,0,0,1,.13-12.3c.34,0,.34,0,24,1.5,11.85.74,25.12,1.63,27.35,1.76a6.32,6.32,0,0,0,2.17-11.95l-55.51-20.18a2.48,2.48,0,0,0-.48-.2c-19.49-8.9-44.94-.89-48,.06L50,229.77l18.27,43.28a37,37,0,0,1,30.12-4L173,291.53a35,35,0,0,0,26.87-2.78l116.84-63.53a5.42,5.42,0,0,0,2.5-7.13,5.13,5.13,0,0,0-6.43-3.33L222,245.13A6.17,6.17,0,0,1,218,233.44l91-30.5a.58.58,0,0,1,.34-.07,17.35,17.35,0,0,1,21.18,10.6,17.64,17.64,0,0,1-8,22.56l-116.9,63.72a47.09,47.09,0,0,1-36.22,3.74L94.77,281a24.44,24.44,0,0,0-20.24,2.79l-38.05,24a2.1,2.1,0,0,1-.54.27c-.07,0-.07.07-.13.07h-.07c-.07.07-.14.07-.27.07s-.34.13-.47.2-.21.07-.28.07-.34.06-.47.13a.39.39,0,0,0-.27.07c-.27,0-.48.07-.75.07a3.17,3.17,0,0,1-.81-.07.39.39,0,0,1-.27-.07,1.77,1.77,0,0,1-.54-.13c-.07,0-.2-.07-.27-.07s-.34-.14-.48-.2-.2-.07-.26-.14-.27-.14-.48-.27a.5.5,0,0,0-.27-.14c-.14-.07-.27-.2-.41-.27a2.69,2.69,0,0,0-.27-.2l-.34-.34-.27-.28a1.57,1.57,0,0,1-.27-.4c-.06-.07-.13-.21-.2-.28a.06.06,0,0,0-.07-.06.26.26,0,0,0-.06-.14,3.81,3.81,0,0,1-.28-.54L.61,247.3c-.07-.2-.14-.34-.21-.54a3.27,3.27,0,0,0-.2-.54,2.18,2.18,0,0,1-.06-.62c0-.2-.07-.4-.07-.61a1.82,1.82,0,0,1-.07-.61Zm14.21,3.13,21.6,46.13,21.86-13.86L38.92,235.35Z"/><path d="M207.37,198.59a99.38,99.38,0,0,0,99.26-99.26C306.63,44.64,262.06,0,207.37,0a99.3,99.3,0,1,0,0,198.59Zm0-186.23a87,87,0,1,1-87,87,87,87,0,0,1,87-87Z"/><path class="cls-1" d="M224.15,137.44H201.68v22.89H186.59V137.44H172.08v-13h14.51V113.06H172.08V100h14.51V39.59h38.48q16.58,0,26.24,9.95T261,76.16q0,17.41-9.2,27.07t-26.12,9.83h-24v11.36h22.47ZM201.68,100h23.39q10.2,0,15.46-6.15t5.27-17.61q0-10.38-5.39-16.94t-14.85-6.73H201.68Z"/><line class="cls-2" x1="45.34" y1="198.61" x2="64.79" y2="189.09"/><path class="cls-2" d="M72.6,304.85l5.84-4.45s8.62-9.74,25.59,0"/><path class="cls-2" d="M304,34.16a85.11,85.11,0,0,1,14.84,33.38"/></g></g></svg>